<svg xmlns="http://www.w3.org/2000/svg" xmlns:xlink="http://www.w3.org/1999/xlink" width="70" height="70" viewBox="0 0 70 70">
  <defs>
    <clipPath id="clip-path">
      <rect id="Rectángulo_377707" data-name="Rectángulo 377707" width="38.398" height="38.176" fill="#fff" stroke="#fff" stroke-width="1"/>
    </clipPath>
  </defs>
  <g id="Grupo_1072247" data-name="Grupo 1072247" transform="translate(-300 -2130)">
    <g id="Grupo_1072171" data-name="Grupo 1072171" transform="translate(31.813 1172.813)">
      <circle id="Elipse_5614" data-name="Elipse 5614" cx="35" cy="35" r="35" transform="translate(268.187 957.187)" fill="#0a5e6b"/>
    </g>
    <g id="Grupo_1072236" data-name="Grupo 1072236" transform="translate(315.624 2145.626)">
      <g id="Grupo_1072235" data-name="Grupo 1072235" clip-path="url(#clip-path)">
        <path id="Trazado_609670" data-name="Trazado 609670" d="M14.507,15.431c.3-.72.613-1.436.9-2.163a13.049,13.049,0,0,0,.688-2.447,8.617,8.617,0,0,0,.1-2.63A1.181,1.181,0,0,1,16.711,7c.956-.682,1.946-1.309,2.964-1.893a36.911,36.911,0,0,1,4.986-2.366q.84-.327,1.7-.6c.819-.261,1.642-.512,2.47-.74.7-.194,1.416-.363,2.129-.522.547-.121,1.1-.219,1.652-.307Q33.765.392,34.922.243,35.987.106,37.057.008a1.164,1.164,0,0,1,1.334,1.326q-.109,1.167-.248,2.332c-.087.735-.18,1.469-.291,2.2-.1.629-.2,1.257-.334,1.88A41.193,41.193,0,0,1,36.381,12.1a32.569,32.569,0,0,1-3.035,6.674A35.035,35.035,0,0,1,29.4,24.068a33.044,33.044,0,0,1-5.483,4.99,21.247,21.247,0,0,1-4.437,2.436,17.835,17.835,0,0,1-2.868.876,14.441,14.441,0,0,1-2.228.345c-.695.037-1.389.105-2.083.114-.5.006-.995-.06-1.492-.1-.352-.027-.706-.045-1.054-.1-.635-.1-1.266-.222-1.9-.344a.41.41,0,0,0-.41.135Q4.772,35.1,2.085,37.764a1.19,1.19,0,0,1-1.216.368A1.169,1.169,0,0,1,.3,36.227c.387-.426.809-.821,1.217-1.227q2.181-2.169,4.36-4.34a.327.327,0,0,0,.055-.25c-.053-.321-.132-.639-.188-.96a22.675,22.675,0,0,1-.382-3.924c0-.671.094-1.343.158-2.013A16.464,16.464,0,0,1,6.3,19.925,20.061,20.061,0,0,1,8.813,14.9a27.211,27.211,0,0,1,1.916-2.49c.078-.09.158-.179.241-.265a1.181,1.181,0,0,1,1.859.157,13.742,13.742,0,0,1,1.579,3.023c.012.033.029.064.044.1l.055.014m-6.5,13.087c.066-.058.13-.108.187-.165l8.728-8.673c.361-.359.715-.725,1.087-1.071a1.163,1.163,0,0,1,1.3-.2,1.207,1.207,0,0,1,.67,1.215,1.451,1.451,0,0,1-.507.867q-2.13,2.109-4.258,4.222L9.744,30.138a.368.368,0,0,0-.046.079.989.989,0,0,0,.1.023c.516.055,1.032.125,1.55.161a16.5,16.5,0,0,0,5.914-.633A17.218,17.218,0,0,0,21.3,27.958a24.877,24.877,0,0,0,4.406-3.473,36.024,36.024,0,0,0,4.6-5.387,30.437,30.437,0,0,0,4.245-9.229,37.421,37.421,0,0,0,.863-3.894c.166-1.011.294-2.029.435-3.044.02-.141.022-.284.032-.433a.849.849,0,0,0-.1,0c-.714.1-1.428.2-2.141.31-.564.086-1.13.166-1.688.283-.8.168-1.59.35-2.376.558-.76.2-1.517.422-2.263.674-.927.314-1.855.634-2.758,1.012a32.4,32.4,0,0,0-5.826,3.141.266.266,0,0,0-.126.254,15.742,15.742,0,0,1-.06,1.674c-.079.634-.228,1.261-.365,1.887a15.143,15.143,0,0,1-.741,2.287,27.514,27.514,0,0,1-2.591,4.965A2.651,2.651,0,0,1,14.5,20a1.1,1.1,0,0,1-.947.343,1.217,1.217,0,0,1-1.046-1.467,4.932,4.932,0,0,0-.109-2.033,10.777,10.777,0,0,0-.72-1.856A16.632,16.632,0,0,0,8.008,28.517" transform="translate(0 -0.001)" fill="#fff" stroke="#fff" stroke-width="1"/>
      </g>
    </g>
  </g>
</svg>
