<svg xmlns="http://www.w3.org/2000/svg" xmlns:xlink="http://www.w3.org/1999/xlink" width="70" height="70" viewBox="0 0 70 70">
  <defs>
    <clipPath id="clip-path">
      <rect id="Rectángulo_377710" data-name="Rectángulo 377710" width="38.128" height="40.906" fill="#fff"/>
    </clipPath>
  </defs>
  <g id="Grupo_1072243" data-name="Grupo 1072243" transform="translate(-1230 -2130)">
    <g id="Grupo_1072174" data-name="Grupo 1072174" transform="translate(961.813 1172.813)">
      <circle id="Elipse_5614" data-name="Elipse 5614" cx="35" cy="35" r="35" transform="translate(268.187 957.187)" fill="#0a5e6b"/>
    </g>
    <g id="Grupo_1072242" data-name="Grupo 1072242" transform="translate(1246 2145)">
      <g id="Grupo_1072241" data-name="Grupo 1072241" clip-path="url(#clip-path)">
        <path id="Trazado_609675" data-name="Trazado 609675" d="M23.493,8.812V32.094h.212c.845,0,1.691-.008,2.536,0A3.038,3.038,0,0,1,29.139,34a2.244,2.244,0,0,1,.183.9c0,1.026-.019,2.053.006,3.079a2.866,2.866,0,0,1-.636,1.787,2.511,2.511,0,0,1-1.665,1.012,6.349,6.349,0,0,1-1.055.117q-7.035.011-14.07,0A2.96,2.96,0,0,1,9.179,39.35,2.546,2.546,0,0,1,8.8,38.017c.021-1.013.012-2.028.006-3.042a2.672,2.672,0,0,1,1.1-2.191,3.243,3.243,0,0,1,2.036-.688c.826-.01,1.652,0,2.479,0h.215V8.822c-.069,0-.13-.01-.192-.01-1.811,0-3.622,0-5.434,0-.164,0-.218.036-.216.209a14.251,14.251,0,0,1-.029,1.5,2.823,2.823,0,0,1-1.428,2.231,2.771,2.771,0,0,1-1.484.4c-1.01,0-2.022.026-3.031-.006A2.919,2.919,0,0,1,.034,10.561c-.012-.183-.028-.366-.028-.55C0,8.1-.01,6.2.011,4.289A4.09,4.09,0,0,1,1.825.868a4.226,4.226,0,0,1,.8-.475A5.074,5.074,0,0,1,4.611.007Q19.081,0,33.551.008a4.469,4.469,0,0,1,3.558,1.574,4.17,4.17,0,0,1,1.019,2.775c0,1.99,0,3.979,0,5.969a2.792,2.792,0,0,1-.751,1.861,2.742,2.742,0,0,1-2.186.965c-1.023,0-2.047.019-3.069-.006A2.962,2.962,0,0,1,29.54,11.22a3.562,3.562,0,0,1-.212-1.266c.009-.323,0-.646,0-.97,0-.131-.034-.182-.171-.175-.184.01-.368,0-.553,0H23.493Zm2.9,29.165v-.193c0-.843-.006-1.686,0-2.528,0-.185-.061-.217-.229-.216-1.347.007-2.695.011-4.042,0a1.677,1.677,0,0,1-.7-.139,1.509,1.509,0,0,1-.887-1.5q.019-10.056.008-20.113,0-3.013.006-6.026a1.457,1.457,0,0,1,1.409-1.39q4.4,0,8.808,0a1.584,1.584,0,0,1,.644.13,1.449,1.449,0,0,1,.872,1.417q0,1.293,0,2.585c0,.121,0,.226.171.224.871-.006,1.741-.005,2.612,0,.117,0,.171-.037.17-.165,0-1.863.009-3.726-.018-5.589a1.8,1.8,0,0,0-.286-.867,1.542,1.542,0,0,0-1.426-.681q-3.87.005-7.74,0H4.61a1.578,1.578,0,0,0-1.717,1.7c0,1.787,0,3.574,0,5.361,0,.185.061.241.242.239q1.249-.009,2.5,0c.167,0,.217-.051.216-.218-.008-.887.006-1.774-.006-2.661A1.579,1.579,0,0,1,7.3,5.864c2.917.016,5.834,0,8.751.01a1.528,1.528,0,0,1,.594.1,1.408,1.408,0,0,1,.938,1.411q-.019,11.691-.008,23.383c0,.957,0,1.914-.005,2.871a1.075,1.075,0,0,1-.082.46,1.515,1.515,0,0,1-1.468.947c-1.36-.019-2.72,0-4.08,0-.154,0-.208.038-.206.2.008.83.009,1.66,0,2.49,0,.19.049.249.245.249q7.121,0,14.242,0c.049,0,.1,0,.172-.008" transform="translate(0 0)" fill="#fff"/>
      </g>
    </g>
  </g>
</svg>
