<svg xmlns="http://www.w3.org/2000/svg" xmlns:xlink="http://www.w3.org/1999/xlink" width="295" height="198.841" viewBox="0 0 295 198.841">
  <defs>
    <clipPath id="clip-path">
      <path id="Trazado_609635" data-name="Trazado 609635" d="M0,0H295V188L0,188.776Z" fill="none"/>
    </clipPath>
  </defs>
  <g id="Grupo_1072206" data-name="Grupo 1072206" transform="translate(-1125 -1016.159)">
    <ellipse id="Elipse_5930" data-name="Elipse 5930" cx="144.5" cy="10" rx="144.5" ry="10" transform="translate(1129 1195)" fill="#d2e1f1"/>
    <g id="Grupo_1072181" data-name="Grupo 1072181" transform="translate(1125 1016.159)">
      <g id="Grupo_85" data-name="Grupo 85" transform="translate(0 0)" clip-path="url(#clip-path)">
        <path id="Trazado_609534" data-name="Trazado 609534" d="M114.339,32.983l9.838,116.963s1.03,7.091-4.244,7.1c-8.672.022-43.16,0-43.16,0s6.528-1.475,6.447-4.8c-.092-3.914-11.5-120.377-11.5-120.377Z" transform="translate(68.997 30.665)" fill="#1c3a3e"/>
        <path id="Trazado_609535" data-name="Trazado 609535" d="M75.38,155.968c1.7.006,34.647.108,43.092,0,3.679-.045,4.324-3.273,4.356-5.36a10.644,10.644,0,0,0-.112-1.74l-.257-3.041-.651-7.748-.575-6.845-.742-8.8-.622-7.424L112.878,31.9,70.261,30.794s4.8,48.74,8.2,84.217c.379,3.953.74,7.744,1.073,11.282.11,1.13.212,2.233.314,3.31.316,3.357.6,6.439.853,9.161.131,1.434.255,2.766.365,3.989.434,4.783.687,7.838.691,8.419a4.969,4.969,0,0,1-.082.948c-.7,3.728-5.656,3.849-6.3,3.849" transform="translate(67.592 29.624)" fill="#49adb7"/>
        <path id="Trazado_609536" data-name="Trazado 609536" d="M62.08,0h204.6L242.72,96.246l-3.28,13.183-11.16,44.828H20.947Z" transform="translate(20.151 0)" fill="#49adb7"/>
        <path id="Trazado_609537" data-name="Trazado 609537" d="M165.023,0l3.322,1.107-37.31,156.5-4.415-3.349Z" transform="translate(121.81 0)" fill="#1c3a3e"/>
        <path id="Trazado_609538" data-name="Trazado 609538" d="M232.694,81.97H26.637l-5.69-3.347H228.28Z" transform="translate(20.151 75.636)" fill="#1c3a3e"/>
        <rect id="Rect치ngulo_377691" data-name="Rect치ngulo 377691" width="44.614" height="2.121" transform="translate(135.871 185.637)" fill="#1c3a3e"/>
        <path id="Trazado_609539" data-name="Trazado 609539" d="M29.91,115.346H221.479l21.7-86.424,1.662-6.628,1.42-5.655,3.328-13.255H60.776L57.121,16.64l-1.558,5.655-1.827,6.628Z" transform="translate(28.774 3.256)" fill="#fff"/>
        <path id="Trazado_609540" data-name="Trazado 609540" d="M47.433,3.385H236.241L232.913,16.64H43.78Z" transform="translate(42.116 3.256)" fill="#8bc0cc"/>
        <path id="Trazado_609541" data-name="Trazado 609541" d="M138.3,5.593a1.253,1.253,0,0,1,1.244,1.658,2.263,2.263,0,0,1-2.07,1.656,1.251,1.251,0,0,1-1.244-1.656,2.263,2.263,0,0,1,2.07-1.658" transform="translate(131.004 5.381)" fill="#e9f3fe"/>
        <path id="Trazado_609542" data-name="Trazado 609542" d="M135.492,5.593a1.253,1.253,0,0,1,1.244,1.658,2.263,2.263,0,0,1-2.07,1.656,1.251,1.251,0,0,1-1.244-1.656,2.263,2.263,0,0,1,2.07-1.658" transform="translate(128.304 5.381)" fill="#e9f3fe"/>
        <path id="Trazado_609543" data-name="Trazado 609543" d="M130.4,7.251a2.265,2.265,0,0,1,2.07-1.658,1.253,1.253,0,0,1,1.244,1.658,2.265,2.265,0,0,1-2.07,1.658A1.253,1.253,0,0,1,130.4,7.251" transform="translate(125.398 5.381)" fill="#e9f3fe"/>
        <path id="Trazado_609544" data-name="Trazado 609544" d="M102.971,49.582a8.56,8.56,0,1,0,8.56,8.56,8.559,8.559,0,0,0-8.56-8.56" transform="translate(90.824 47.698)" fill="#24555e"/>
        <path id="Trazado_609545" data-name="Trazado 609545" d="M121,51.507H106.822a.935.935,0,0,0,0,1.87H121a.935.935,0,0,0,0-1.87" transform="translate(101.865 49.55)" fill="#49adb7"/>
        <path id="Trazado_609546" data-name="Trazado 609546" d="M121,53.468H106.822a.934.934,0,0,0,0,1.868H121a.934.934,0,1,0,0-1.868" transform="translate(101.865 51.437)" fill="#49adb7"/>
        <path id="Trazado_609547" data-name="Trazado 609547" d="M121,55.429H106.822a.935.935,0,0,0,0,1.87H121a.935.935,0,0,0,0-1.87" transform="translate(101.865 53.323)" fill="#49adb7"/>
        <path id="Trazado_609548" data-name="Trazado 609548" d="M94.779,57.724h7.838V49.886a7.839,7.839,0,0,0-7.838,7.838" transform="translate(91.178 47.991)" fill="#8bc0cc"/>
        <path id="Trazado_609549" data-name="Trazado 609549" d="M110.454,54.01H94.78a7.837,7.837,0,1,0,15.674,0" transform="translate(91.179 51.958)" fill="#24555e"/>
        <path id="Trazado_609550" data-name="Trazado 609550" d="M100.385,51.828H96.131a.44.44,0,0,0,0,.881h4.254a.44.44,0,0,0,0-.881" transform="translate(92.056 49.859)" fill="#49adb7"/>
        <path id="Trazado_609551" data-name="Trazado 609551" d="M97.1,52.644h-.969a.44.44,0,0,0,0,.881H97.1a.44.44,0,0,0,0-.881" transform="translate(92.056 50.644)" fill="#49adb7"/>
        <path id="Trazado_609552" data-name="Trazado 609552" d="M103.6,54.986H99.35a.44.44,0,0,0,0,.881H103.6a.44.44,0,0,0,0-.881" transform="translate(95.153 52.897)" fill="#49adb7"/>
        <path id="Trazado_609553" data-name="Trazado 609553" d="M100.319,55.8h-.969a.44.44,0,0,0,0,.881h.969a.44.44,0,0,0,0-.881" transform="translate(95.152 53.683)" fill="#49adb7"/>
        <path id="Trazado_609554" data-name="Trazado 609554" d="M69.621,58.142a8.56,8.56,0,1,1,8.56,8.56,8.559,8.559,0,0,1-8.56-8.56" transform="translate(66.976 47.698)" fill="#8bc0cc"/>
        <path id="Trazado_609555" data-name="Trazado 609555" d="M82.032,53.377H96.213a.935.935,0,0,0,0-1.87H82.032a.935.935,0,0,0,0,1.87" transform="translate(78.017 49.55)" fill="#49adb7"/>
        <path id="Trazado_609556" data-name="Trazado 609556" d="M96.213,53.468H82.032a.935.935,0,0,0,0,1.87H96.213a.935.935,0,0,0,0-1.87" transform="translate(78.017 51.437)" fill="#49adb7"/>
        <path id="Trazado_609557" data-name="Trazado 609557" d="M96.213,55.429H82.032a.935.935,0,0,0,0,1.87H96.213a.935.935,0,0,0,0-1.87" transform="translate(78.017 53.323)" fill="#49adb7"/>
        <path id="Trazado_609558" data-name="Trazado 609558" d="M77.827,54.065l-7.836-.1c0,.033,0,.067,0,.1a7.837,7.837,0,0,0,12.043,6.614Z" transform="translate(67.33 51.915)" fill="#24555e"/>
        <path id="Trazado_609559" data-name="Trazado 609559" d="M76.432,55.273H72.178a.44.44,0,0,0,0,.881h4.254a.44.44,0,0,0,0-.881" transform="translate(69.013 53.173)" fill="#49adb7"/>
        <path id="Trazado_609560" data-name="Trazado 609560" d="M73.148,56.09h-.969a.44.44,0,0,0,0,.881h.969a.44.44,0,0,0,0-.881" transform="translate(69.013 53.959)" fill="#49adb7"/>
        <path id="Trazado_609561" data-name="Trazado 609561" d="M44.615,58.142a8.56,8.56,0,1,1,8.56,8.56,8.559,8.559,0,0,1-8.56-8.56" transform="translate(42.92 47.698)" fill="#24555e"/>
        <path id="Trazado_609562" data-name="Trazado 609562" d="M52.823,49.95A7.837,7.837,0,0,0,49.06,64.663c1.256-2.325,3.763-6.877,3.763-6.877l3.708,6.9A7.838,7.838,0,0,0,52.823,49.95" transform="translate(43.274 48.052)" fill="#8bc0cc"/>
        <path id="Trazado_609563" data-name="Trazado 609563" d="M71.208,51.507H57.027a.934.934,0,1,0,0,1.868H71.208a.934.934,0,1,0,0-1.868" transform="translate(53.962 49.55)" fill="#49adb7"/>
        <path id="Trazado_609564" data-name="Trazado 609564" d="M71.208,53.468H57.027a.934.934,0,1,0,0,1.868H71.208a.934.934,0,1,0,0-1.868" transform="translate(53.962 51.437)" fill="#49adb7"/>
        <path id="Trazado_609565" data-name="Trazado 609565" d="M71.208,55.429H57.027a.935.935,0,0,0,0,1.87H71.208a.935.935,0,0,0,0-1.87" transform="translate(53.962 53.323)" fill="#49adb7"/>
        <path id="Trazado_609566" data-name="Trazado 609566" d="M51.427,52.037H47.173a.44.44,0,0,0,0,.881h4.254a.44.44,0,0,0,0-.881" transform="translate(44.958 50.06)" fill="#49adb7"/>
        <path id="Trazado_609567" data-name="Trazado 609567" d="M48.142,52.853h-.969a.44.44,0,0,0,0,.881h.969a.44.44,0,0,0,0-.881" transform="translate(44.957 50.845)" fill="#49adb7"/>
        <path id="Trazado_609568" data-name="Trazado 609568" d="M79.406,71.9h71.443a3.184,3.184,0,0,0,3.094-2.425L165.31,23.133a3.183,3.183,0,0,0-3.092-3.942H91a3.184,3.184,0,0,0-3.09,2.411L76.315,67.947a3.185,3.185,0,0,0,3.09,3.957" transform="translate(73.323 18.462)" fill="#bcecf7"/>
        <path id="Trazado_609569" data-name="Trazado 609569" d="M153.683,38.446s-11.191-8.58-21.17-1.079-23.44.665-29.373,0c-10.314-1.156-19.495,2.319-22.916,6.143L77.355,54.988h72.267Z" transform="translate(74.416 32.989)" fill="#8bc0cc"/>
        <path id="Trazado_609570" data-name="Trazado 609570" d="M111.655,41.361h.557l4.4-17.864h-.557Z" transform="translate(107.413 22.605)" fill="#fff"/>
        <path id="Trazado_609571" data-name="Trazado 609571" d="M99.539,45.283h.557L104.522,27.4h-.557Z" transform="translate(95.757 26.361)" fill="#fff"/>
        <path id="Trazado_609572" data-name="Trazado 609572" d="M88.545,43.215H89.1L93.55,25.343h-.557Z" transform="translate(85.181 24.38)" fill="#fff"/>
        <path id="Trazado_609573" data-name="Trazado 609573" d="M110.562,25.348h4.267a.633.633,0,0,0,.579-.465.352.352,0,0,0-.349-.463h-4.267a.633.633,0,0,0-.579.463.353.353,0,0,0,.349.465" transform="translate(106.012 23.492)" fill="#fff"/>
        <path id="Trazado_609574" data-name="Trazado 609574" d="M110.352,26.2h4.269a.631.631,0,0,0,.577-.465.352.352,0,0,0-.349-.463h-4.267a.633.633,0,0,0-.579.463.352.352,0,0,0,.349.465" transform="translate(105.81 24.312)" fill="#fff"/>
        <path id="Trazado_609575" data-name="Trazado 609575" d="M98.441,29.989h4.271a.635.635,0,0,0,.579-.465.353.353,0,0,0-.349-.465H98.671a.635.635,0,0,0-.579.465.353.353,0,0,0,.349.465" transform="translate(94.352 27.955)" fill="#fff"/>
        <path id="Trazado_609576" data-name="Trazado 609576" d="M98.234,30.825h4.271a.635.635,0,0,0,.579-.465.353.353,0,0,0-.349-.465H98.464a.635.635,0,0,0-.579.465.353.353,0,0,0,.349.465" transform="translate(94.153 28.759)" fill="#fff"/>
        <path id="Trazado_609577" data-name="Trazado 609577" d="M87.608,26.555h4.269a.635.635,0,0,0,.579-.465.35.35,0,0,0-.347-.463H87.84a.633.633,0,0,0-.579.463.351.351,0,0,0,.347.465" transform="translate(83.932 24.654)" fill="#fff"/>
        <path id="Trazado_609578" data-name="Trazado 609578" d="M87.4,27.39H91.67a.635.635,0,0,0,.579-.465.35.35,0,0,0-.347-.463H87.633a.638.638,0,0,0-.581.463.353.353,0,0,0,.349.465" transform="translate(83.731 25.457)" fill="#fff"/>
        <path id="Trazado_609579" data-name="Trazado 609579" d="M46.733,68.7H57.96L69.595,22.519H58.674Z" transform="translate(44.958 21.664)" fill="#ff4b42"/>
        <path id="Trazado_609580" data-name="Trazado 609580" d="M54.025,62.5H65.252l8.364-33.535H62.389Z" transform="translate(51.972 27.866)" fill="#2d4b9b"/>
        <path id="Trazado_609581" data-name="Trazado 609581" d="M61.316,73.022H72.543L86.424,18.029H75.2Z" transform="translate(58.987 17.344)" fill="#83bb26"/>
        <path id="Trazado_609582" data-name="Trazado 609582" d="M72.329,25.675a2.64,2.64,0,1,1,2.639-2.639,2.642,2.642,0,0,1-2.639,2.639m0-4.258a1.618,1.618,0,1,0,1.619,1.619,1.62,1.62,0,0,0-1.619-1.619" transform="translate(67.042 19.62)" fill="#24555e"/>
        <path id="Trazado_609583" data-name="Trazado 609583" d="M71.859,25.38a.506.506,0,0,1-.361-.149.512.512,0,0,1,0-.724l8.233-8.231h90.358a.51.51,0,0,1,0,1.02H80.152L72.22,25.231a.506.506,0,0,1-.361.149" transform="translate(68.637 15.658)" fill="#24555e"/>
        <path id="Trazado_609584" data-name="Trazado 609584" d="M164.947,18.027H79.529a2.835,2.835,0,1,1,0-5.67h85.418a2.835,2.835,0,0,1,0,5.67" transform="translate(73.778 11.888)" fill="#8bc0cc"/>
        <path id="Trazado_609585" data-name="Trazado 609585" d="M8.529,88.032l1.993,8.4,2.988-.018.11-8.382Z" transform="translate(8.205 84.687)" fill="#fcbdb6"/>
        <path id="Trazado_609586" data-name="Trazado 609586" d="M21.335,88.756l5.674,8.04,2.211-2.839L25.8,87.651Z" transform="translate(20.524 84.321)" fill="#fcbdb6"/>
        <path id="Trazado_609587" data-name="Trazado 609587" d="M27.107,32.24a5.781,5.781,0,0,0-3.131-.6,1.476,1.476,0,0,1,.661-.314,4.844,4.844,0,0,0-1.732.451c-7.456-2.872-8.627,8.105-8.47,10.656s-2.505,3.382-6.384,5.392C.651,51.66,0,56.795,0,56.795a2.129,2.129,0,0,1,.181.116c.369-.622,1.124-1.789,1.762-1.966a26.205,26.205,0,0,0-1.026,2.5C3.1,59.1,7.183,62.783,10.03,65.392a4.162,4.162,0,0,1,.2-1.617l.351,2.119c1.523,1.4,2.572,2.384,2.572,2.384-.188-2.06,9.321-12.936,14.281-16.192A14.311,14.311,0,0,0,29.1,46.92a13.547,13.547,0,0,1-1.016,4.674c4.2-3.867,1.756-17.8-.977-19.353" transform="translate(0 30.115)" fill="#501506"/>
        <path id="Trazado_609588" data-name="Trazado 609588" d="M17.276,45.581c.026.012-2.4,1.267-4.216.769-1.711-.467-2.831-2.686-2.808-2.692.726-.143.934-1.14.92-5.423l.328.065,5.511,1.093s-.126,1.734-.129,3.369c0,1.371.08,2.672.394,2.819" transform="translate(9.862 36.783)" fill="#fcbdb6"/>
        <path id="Trazado_609589" data-name="Trazado 609589" d="M10.655,33.351a4.408,4.408,0,0,1,6.133-.149,23.893,23.893,0,0,0-6.133.149" transform="translate(10.25 30.803)" fill="#e58638"/>
        <path id="Trazado_609590" data-name="Trazado 609590" d="M16.4,39.359s-.126,1.734-.129,3.369c-3.084-.086-4.715-2.9-5.382-4.46Z" transform="translate(10.474 36.814)" fill="#f9a6a0"/>
        <path id="Trazado_609591" data-name="Trazado 609591" d="M11.6,43.515A16.223,16.223,0,0,1,9.6,38.777c-.277-1.56.518-7.338,6.326-6.506A7.893,7.893,0,0,1,19.2,33.509c1.262.852,3.08,2.69,1.046,7.732l-.528,1.7Z" transform="translate(9.188 30.967)" fill="#501506"/>
        <path id="Trazado_609592" data-name="Trazado 609592" d="M40.236,120.742l-2.921.09-3.163.1a62.417,62.417,0,0,1-11.4-21.172c-.1-.3-.2-.61-.3-.92C20.2,92.3,15.554,84.089,13.1,76.659c-.39-1.183-.74-2.3-1.054-3.351q-.15-.506-.292-1a78.728,78.728,0,0,1-2.81-14.794l17.691.143a329.673,329.673,0,0,0,13.6,63.08" transform="translate(8.608 55.333)" fill="#24555e"/>
        <path id="Trazado_609593" data-name="Trazado 609593" d="M27.88,63.651c-.045,8.419,1.234,12.031,1.234,12.031A23.772,23.772,0,0,1,12.537,76.7c-.106-.033-7.454-1.709-7.454-1.709.151-.341,1.491-6.016,1.636-6.327,1.9-4.083,3.345-5.872,3.571-7.126a26.641,26.641,0,0,0,.218-7.053A56.676,56.676,0,0,0,8.326,43.4a57.351,57.351,0,0,0,7.3-2.5,5.7,5.7,0,0,0,3.94,1.462c1.793-.039,2.374-.806,2.282-1.646,1.911,1.063,3.435,2.068,3.435,2.068,1.625,2.821,4.919,5.562,5.156,9.889.061,1.065-2.56,10.736-2.562,10.972" transform="translate(4.89 39.176)" fill="#39a900"/>
        <path id="Trazado_609594" data-name="Trazado 609594" d="M29.914,51.144c-2.6-3.033-9.325-9.614-16.269-10.42L19.637,52.4a5.157,5.157,0,0,0,2.111,3.167,34.742,34.742,0,0,0,9.871,4.118,51.846,51.846,0,0,0,8.858-5.38c1.6-1.177,4.426-5.664,4.426-5.664l-.761-2.547s-4.789,2.678-6.5,3.451c-.975.439-3.222,1.491-4.8,2.233a2.469,2.469,0,0,1-2.925-.63" transform="translate(13.127 39.177)" fill="#8bc0cc"/>
        <path id="Trazado_609595" data-name="Trazado 609595" d="M17.843,45.651s-7.3.12-7.3-4.426-.952-7.591,3.708-7.86,5.566,1.464,5.937,2.98-.445,9.157-2.343,9.306" transform="translate(10.061 32.07)" fill="#fcbdb6"/>
        <path id="Trazado_609596" data-name="Trazado 609596" d="M18.725,33.771s-2,5.333-5.066,6.121-4.4-.033-4.4-.033a15.262,15.262,0,0,0,1.827-5.39s6.127-3.237,7.636-.7" transform="translate(8.91 31.553)" fill="#501506"/>
        <path id="Trazado_609597" data-name="Trazado 609597" d="M13.832,33.942a6.437,6.437,0,0,1,1.856,2.349c.363,1.158.528,3.541,1.222,3.459,0,0,1.5-3.624-.186-5.676-1.8-2.174-2.892-.131-2.892-.131" transform="translate(13.306 31.815)" fill="#501506"/>
        <path id="Trazado_609598" data-name="Trazado 609598" d="M29.19,45.043A4.554,4.554,0,0,1,34.3,41.861c.467.147,1.834.693.961,2.156-.644,1.077-.924.522-1.937,1.972a3.231,3.231,0,0,1-3.369,1.6Z" transform="translate(28.081 40.222)" fill="#fcbdb6"/>
        <path id="Trazado_609599" data-name="Trazado 609599" d="M9.705,92.073a8.1,8.1,0,0,1-.383,3.443s-.489,2.227,1.7,2.268,2.731-.165,2.486-1.53-.722-3.728-.722-3.728Z" transform="translate(8.924 88.575)" fill="#fcbdb6"/>
        <path id="Trazado_609600" data-name="Trazado 609600" d="M13.813,97.076a1.536,1.536,0,0,1-.137.073H9.381a.983.983,0,0,1-.122-.073,10.813,10.813,0,0,1,.157-3.222c2.486,2.278,4.04-.055,4.04-.055a11.633,11.633,0,0,1,.357,3.277" transform="translate(8.83 90.236)" fill="#ff4b42"/>
        <path id="Trazado_609601" data-name="Trazado 609601" d="M32.114,97.639a54.95,54.95,0,0,1-5.286-6.773l-3.008,1.54,6.722,6.314,1.574-.208Z" transform="translate(22.916 87.414)" fill="#fcbdb6"/>
        <path id="Trazado_609602" data-name="Trazado 609602" d="M35,99.216H29.463a7.874,7.874,0,0,1-1.65-2.558,2.7,2.7,0,0,0-1.831-1.222v3.738H24.834L23.748,95.2c-.716-1.315-.057-2.509.447-3.547.585,0,2.162.4,5.15,3.765a3.916,3.916,0,0,0,3.143,1.468l.043.024A4.009,4.009,0,0,1,35,99.216" transform="translate(22.542 88.169)" fill="#ff4b42"/>
        <path id="Trazado_609603" data-name="Trazado 609603" d="M13.629,40.724s4.222,10.43,4.346,12.541.5,34.522.5,34.522-.249,1.491,2.608.869,3.6-1.242,3.6-1.242S21.95,67.421,22.693,60.468s-5.711-18.3-5.711-18.3Z" transform="translate(13.111 39.177)" fill="#8bc0cc"/>
        <path id="Trazado_609604" data-name="Trazado 609604" d="M35.937,114.546l-3.163.1a62.431,62.431,0,0,1-11.4-21.172q-.144-.453-.3-.92c-2.243-6.537-6.893-14.746-9.343-22.177-.388-1.183-.74-2.3-1.054-3.351q-.15-.506-.292-.995l2.606-1.978s7.823,12.667,10.244,24.586c2.1,10.354,10.528,22.812,12.708,25.91" transform="translate(9.986 61.617)" fill="#1c3a3e"/>
        <path id="Trazado_609605" data-name="Trazado 609605" d="M18.49,91.394c.045,5.8-.249,19.124-1,24.641h-2.8c-1.548,0-2.321-.024-2.321-.024-1.893-9.592-3.241-17.529-4.222-24.368-.8-5.613-1.521-10.426-2.07-14.568-.553-4.169-.938-7.66-1.077-10.609-.02-.463-.037-.916-.045-1.354s-.012-.869-.008-1.285l15.286-1.491c-.192,10.157-1.764,25.689-1.738,29.057" transform="translate(4.752 59.969)" fill="#24555e"/>
        <path id="Trazado_609606" data-name="Trazado 609606" d="M14.658,114.009c-1.548,0-2.321-.022-2.321-.022-1.893-9.594-3.241-17.531-4.222-24.37C7.311,84,6.6,79.193,6.045,75.05c-.553-4.167-.938-7.658-1.077-10.607l5.609,3.3S7,69,8.364,78.566s4.393,34.09,6.294,35.444" transform="translate(4.779 61.995)" fill="#1c3a3e"/>
        <path id="Trazado_609607" data-name="Trazado 609607" d="M17.053,87.061s-1.077,3.891-4.8,3.394a44.844,44.844,0,0,1-9.023-2.733S4.82,82.691,6.8,76.083c2.4-8,5.364-18.313,6.761-24.819a40.442,40.442,0,0,0,.761-4.436l3.09-6s4.609,10.342,4.856,12.949-5.215,33.28-5.215,33.28" transform="translate(3.106 39.281)" fill="#8bc0cc"/>
        <path id="Trazado_609608" data-name="Trazado 609608" d="M11.571,53.393,15.65,40.832a62.552,62.552,0,0,0-7.738,2.835S6.3,45.751,5.3,50.56c0,0-1.058,11.541,1.3,15.763,0,0,7.45,1.491,19.371-2.608V60.984s-13.04.683-15.708.993Z" transform="translate(4.868 39.281)" fill="#fcbdb6"/>
        <path id="Trazado_609609" data-name="Trazado 609609" d="M15.138,54.13c-.167,4.222-1.16,12.418-10.018,16.8-.024.012-.047.024-.071.033,2.4-8,5.364-18.313,6.761-24.819,1.628,2.431,3.418,5.656,3.328,7.981" transform="translate(4.857 44.396)" fill="#49adb7"/>
        <path id="Trazado_609610" data-name="Trazado 609610" d="M15.845,40.832s-7.562.532-9.382,4.589-2.4,17.55-.082,21.523c0,0,3.19.908,8.835-.145l.208-.041s1.8-4.407.186-5.278c0,0-4.76.249-4.263-1.324s4.5-19.324,4.5-19.324" transform="translate(4.674 39.281)" fill="#8bc0cc"/>
        <path id="Trazado_609611" data-name="Trazado 609611" d="M15.037,54.014a6.533,6.533,0,0,0,1.26-2.545A2.767,2.767,0,0,1,19,49c1.793-.235,2.564-.261,2.56.245a13.4,13.4,0,0,1-4.038,6.141c-2.572,2.107-2.484-1.368-2.484-1.368" transform="translate(14.466 46.978)" fill="#fcbdb6"/>
        <path id="Trazado_609612" data-name="Trazado 609612" d="M30.65,58.364a.33.33,0,0,0,.179-.051l47.82-29.077a.344.344,0,1,0-.357-.589L30.472,57.724a.345.345,0,0,0,.179.64" transform="translate(29.154 27.511)" fill="#163560"/>
        <path id="Trazado_609613" data-name="Trazado 609613" d="M141.106,61.539a23.185,23.185,0,0,1-.806,4.442,15.885,15.885,0,0,1-2.982,3.41c-.763.441.469-2.976.312-3.641s-.63,1.214-.967,1.258-.249-1.646-.261-2.262,1.64-2.135,2.221-3.445,2.484.239,2.484.239" transform="translate(131.217 58.465)" fill="#fcbdb6"/>
        <path id="Trazado_609614" data-name="Trazado 609614" d="M118.473,46.771l-.859-1.621s.428-2.886-3.19-4.713a1.766,1.766,0,0,0-2.068.54c-.689.993,1.309.814,1.2,2.513a3.123,3.123,0,0,0,1.821,3.249l.928,1.075Z" transform="translate(107.947 38.773)" fill="#fcbdb6"/>
        <path id="Trazado_609615" data-name="Trazado 609615" d="M151.294,41.9a28.657,28.657,0,0,1-20.2,20.23c-5.337,1.554-17.46-16.016-17.46-16.016s.426-1.619,3.1-1.246c0,0,11.805,7.815,13.291,8.662,1.32.753,9.992-9.683,13.946-11.366a10.091,10.091,0,0,1,7.33-.265" transform="translate(109.314 39.771)" fill="#ef3733"/>
        <path id="Trazado_609616" data-name="Trazado 609616" d="M147,90.929s2.121,1.935,1.707,3.31-2.327,2.294-2.586,3.973-1.293,2.6-2.225,2.6h-4.438s-.687-1.183.969-1.538,2.28-2.333,2.176-4.165a32.24,32.24,0,0,1,.155-4.279l3.518-.814Z" transform="translate(134.021 86.593)" fill="#1c3a3e"/>
        <path id="Trazado_609617" data-name="Trazado 609617" d="M136.081,93.867s.381,4.4-.551,4.864L123.614,98.7s0-1.375,1.915-1.679S130.8,95.6,131.374,93.1s4.707.763,4.707.763" transform="translate(118.918 88.661)" fill="#1c3a3e"/>
        <path id="Trazado_609618" data-name="Trazado 609618" d="M124.841,61.842s.628,7.72,1.368,17c1,12.606,2.211,28.094,2.331,31.027.206,5.093,1.034,13.244,1.034,13.244s1.966,1.935,5.9,1.12a131.482,131.482,0,0,0,4.5-23.942c.016-.2.031-.4.047-.608.93-12.529,2.378-38.912,2.378-38.912Z" transform="translate(120.098 58.464)" fill="#24555e"/>
        <path id="Trazado_609619" data-name="Trazado 609619" d="M124.841,61.842s.628,7.72,1.368,17l13.767,21.449c.016-.2.031-.4.047-.608.93-12.529,2.378-38.912,2.378-38.912Z" transform="translate(120.098 58.464)" fill="#1c3a3e"/>
        <path id="Trazado_609620" data-name="Trazado 609620" d="M126.3,64.258s11.329,27.963,18.776,41.1,9.777,16.807,9.777,16.807,4.267-1.679,4.656-2.825c0,0-2.849-25.371-7.836-31.555-2.819-3.494-6.129-13.981-6.286-17.648s-1.008-10.924-1.008-10.924Z" transform="translate(121.505 56.966)" fill="#24555e"/>
        <path id="Trazado_609621" data-name="Trazado 609621" d="M139.825,44.376s-7.666,3.7-12.084,2.327a10.427,10.427,0,0,1,2.992-2.394c-.153-.887-.273-1.658-.341-2.309a21.411,21.411,0,0,1-.186-2.36l2.957-2.325,2.806-2.227a11.3,11.3,0,0,0,3.857,9.288" transform="translate(122.888 33.755)" fill="#fcbdb6"/>
        <path id="Trazado_609622" data-name="Trazado 609622" d="M146.967,80.158c.018.469-.985,1-1.428,1.2a31.286,31.286,0,0,1-9.806,2.778c-4.095.418-8.939-.5-10.6-.469a.693.693,0,0,1-.459-.184c-.118-.082-.2-5.019-.118-11.229,0-.251,0-.5.016-.753v-.082c.035-2.427.12-4.97.239-7.514.237-5.59.679-10.977,1.426-13.956a15.128,15.128,0,0,1,4.793-7.53l1.53-1.34a7.34,7.34,0,0,0,4.758-.569c1.768-.853,3.671-1.774,3.977-1.54,2.311,1.691,3.875,5.49,4.707,10.344a53.641,53.641,0,0,1,.7,9.2c0,1.2-.033,2.443-.1,3.665a115.543,115.543,0,0,0,.239,15.712c.067.971.118,1.725.135,2.26" transform="translate(119.785 37.457)" fill="#ff4b42"/>
        <path id="Trazado_609623" data-name="Trazado 609623" d="M142.442,74.763c-26.84-.053-4.95-29.124-4.95-29.124l4.348-1.413a84.73,84.73,0,0,1,.5,9.834c0,1.287-.026,2.609-.075,3.914-.294,7.081,0,13.232.173,16.789" transform="translate(124.175 42.546)" fill="#ef3733"/>
        <path id="Trazado_609624" data-name="Trazado 609624" d="M134.809,36.39a10.161,10.161,0,0,1-5.625,4.519,21.409,21.409,0,0,1-.186-2.36l2.957-2.325Z" transform="translate(124.097 34.847)" fill="#f9a6a0"/>
        <path id="Trazado_609625" data-name="Trazado 609625" d="M129.009,43.2s7.312,1.2,8-3.3,2.092-7.369-2.549-8.323-5.809.628-6.41,2.072-.924,9.121.959,9.549" transform="translate(122.736 30.098)" fill="#fcbdb6"/>
        <path id="Trazado_609626" data-name="Trazado 609626" d="M140.826,32.376c.065-.077.22-.137.557-.157a1.388,1.388,0,0,0-.636-.179,1.716,1.716,0,0,0-1.138-1.517,1.021,1.021,0,0,1,.494.738c-.944-.969-2.969-1.676-8.572-1.234-7.383.583-4.95,5.311-3.995,5.876s3.363-.983,5.144-.842,2.119,2.715,2.723,3.071.367-.273,1.185-.642.895.985.659,1.866.887,2.042.887,2.042l1.138-1.222c1.134-1.222,2.2-6.4,1.687-7.5-.045-.1-.09-.2-.135-.3" transform="translate(121.577 28.758)" fill="#501506"/>
        <path id="Trazado_609627" data-name="Trazado 609627" d="M134.781,38.936s4.626,2.192,6.845,5.558c3.439,5.225,7.428,24.264,7.5,26.028s-2.912,14.209-2.912,14.209-3.027-.2-3.808-1.727c0,0,.6-12.788.222-13.61s-12.62-17.156-11.244-20.642,3.394-9.816,3.394-9.816" transform="translate(126.291 37.457)" fill="#ff4b42"/>
        <path id="Trazado_609628" data-name="Trazado 609628" d="M116.064,44.183s.251-.993-.438-1.44-1.324-1.662-1.615-1.5c-.6.341.33,1.4.159,2.723-.059.463,1.018,1.676,1.893.214" transform="translate(109.483 39.664)" fill="#fcbdb6"/>
      </g>
    </g>
    <path id="Uni칩n_17" data-name="Uni칩n 17" d="M12787.823,11728.255v0h0v0Zm-7.062,0h0Zm-14.366-14.128v0h0v0Zm18.367-7.062v0h0v0Zm-25.429,7.062h0Zm18.364-7.062h0Z" transform="translate(-11610.143 -10680.66)" fill="none" stroke="#0a5e6b" stroke-width="4"/>
  </g>
</svg>
