<svg xmlns="http://www.w3.org/2000/svg" xmlns:xlink="http://www.w3.org/1999/xlink" width="190" height="188.494" viewBox="0 0 190 188.494">
  <defs>
    <clipPath id="clip-path">
      <rect id="Rectángulo_377631" data-name="Rectángulo 377631" width="188.493" height="188.494" fill="none"/>
    </clipPath>
  </defs>
  <g id="Grupo_1072182" data-name="Grupo 1072182" transform="translate(-285 -1598)">
    <rect id="Rectángulo_377653" data-name="Rectángulo 377653" width="165" height="165" transform="translate(303 1608)" fill="#fff"/>
    <path id="Trazado_609222" data-name="Trazado 609222" d="M79.1,117.806c.39,1.466.757,2.809,1.109,4.156.442,1.688.894,3.376,1.306,5.076a.857.857,0,0,0,1.017.775,37.25,37.25,0,0,1,4.86.041,11.534,11.534,0,0,1,9.086,5.91,10.876,10.876,0,0,1,1.529,5.855,4.5,4.5,0,0,1-3.807,4.419,10.14,10.14,0,0,1-1.54.126q-25.935.006-51.873,0a4.985,4.985,0,0,1-3.9-1.5,4.425,4.425,0,0,1-1.243-3.1A11.105,11.105,0,0,1,38,132.524a11.563,11.563,0,0,1,9.532-4.731c1.236,0,2.471-.037,3.707.015a.727.727,0,0,0,.872-.649c.616-2.445,1.25-4.883,1.885-7.32.167-.638.367-1.261.579-1.981-.334-.019-.616-.048-.9-.045q-19.217.006-38.434.011a9.718,9.718,0,0,1-7.921-3.588,9.479,9.479,0,0,1-2.159-6.018c-.026-1.569-.011-3.135-.011-4.7q-.006-35.123.011-70.243a22.055,22.055,0,0,1,.327-4.883,8.919,8.919,0,0,1,6.875-7.027,16.77,16.77,0,0,1,4.007-.345c5.473-.033,10.949-.019,16.425,0a1,1,0,0,0,.946-.493,3.612,3.612,0,0,1,5.09-.761,1.761,1.761,0,0,1,.378.319,2.781,2.781,0,0,0,2.586.972c2.857-.059,5.714-.022,8.678-.022-.145-.178-.237-.315-.352-.43q-2.66-2.66-5.324-5.309a4.551,4.551,0,0,1-1.3-2.081,3.4,3.4,0,0,1,.794-3.187,4.362,4.362,0,0,1,2.842-1.417,16.933,16.933,0,0,1,6.426.134A17.343,17.343,0,0,1,65.5,17.68a14.522,14.522,0,0,1,1.091,2.586.924.924,0,0,0,1.076.775Q78.639,21,89.617,21q13.607-.011,27.211.011a31.544,31.544,0,0,1,4.185.275,8.035,8.035,0,0,1,4.315,2.2,9.519,9.519,0,0,1,3.176,7.1c.045,1.844.037,3.688.033,5.532a2.153,2.153,0,0,1-1.777,2.167,2.072,2.072,0,0,1-2.182-1.607c-.082-.916-.089-1.837-.1-2.76-.007-1.176,0-2.36.022-3.536a5.382,5.382,0,0,0-3.974-5.168,10.879,10.879,0,0,0-2.145-.148q-25.05-.011-50.1,0c-.178,0-.356.015-.564.022a9.825,9.825,0,0,0,1.069,4.515,16.931,16.931,0,0,0,3.662,5.013c.783.775,1.5,1.621,2.245,2.438.612-.557,1.043-.987,1.51-1.369a6.475,6.475,0,0,1,7.209-.475,6.343,6.343,0,0,1,2.976,6.523c-.063.334-.037.493.3.62a6.446,6.446,0,0,1,4.467,6.244c0,.089.019.182.03.308a6.48,6.48,0,0,1,3.874,2.048,5.948,5.948,0,0,1,1.492,5.577c-.07.349-.007.471.312.608a6.443,6.443,0,0,1,4.193,5.443,2.056,2.056,0,0,0,.56,1.08c1.195,1.258,2.5,2.412,3.643,3.707a9.359,9.359,0,0,1-3.217,14.93A9.038,9.038,0,0,1,91.94,80.8c-1.12-.95-2.122-2.048-3.157-3.094-.26-.263-.475-.364-.809-.145-2.9,1.907-6.155,3.05-9.29,4.46a7.945,7.945,0,0,0-2.037,1.295c-1.113.991-2.126,2.093-3.195,3.139a.508.508,0,0,0-.093.675,5.966,5.966,0,0,1-6.307,8.537.956.956,0,0,0-.686.163C65.193,96.95,64.05,98.1,62.9,99.251a1.549,1.549,0,0,0-.171.263h61.746V98.92q0-25.885,0-51.769a14.451,14.451,0,0,1,.056-1.655,1.961,1.961,0,0,1,1.892-1.751,2.005,2.005,0,0,1,2.011,1.7,8.761,8.761,0,0,1,.078,1.325q.006,29.753-.015,59.509a17.144,17.144,0,0,1-.364,4.326,9.146,9.146,0,0,1-7.51,7,10.6,10.6,0,0,1-2.137.215q-19.139.006-38.279-.015H79.1M9.179,99.54h.7c1.64.007,3.28.03,4.92,0a1.449,1.449,0,0,0,.916-.352q6.033-6.011,12.036-12.051a2.64,2.64,0,0,1,.809-.653,2.216,2.216,0,0,1,1.25-.186,1.972,1.972,0,0,1,.916,3.462q-4.569,4.58-9.161,9.142a6.615,6.615,0,0,1-.594.471l.089.156c.193.015.386.045.579.041,4.167-.007,8.333-.026,12.5-.026,7.465,0,14.93.022,22.4.015a1.407,1.407,0,0,0,.857-.382c1.792-1.755,3.547-3.543,5.339-5.295.382-.371.393-.586.007-.965q-8.4-8.331-16.778-16.692c-.271-.267-.516-.56-.8-.872-2.412,2.423-4.753,4.775-7.1,7.12a7.071,7.071,0,0,1-.868.764,1.891,1.891,0,0,1-2.768-.746,2.02,2.02,0,0,1,.586-2.538c2.356-2.363,4.712-4.723,7.1-7.061a.891.891,0,0,0,.249-1.15,5.077,5.077,0,0,1-.186-3.354,6.014,6.014,0,0,1,7.691-4.271,19.186,19.186,0,0,1,1.881.928c.349-.352.723-.709,1.072-1.087a5.616,5.616,0,0,0,1.6-4.538c-.078-.824-.226-1.644-.367-2.46a13.843,13.843,0,0,1,2.122-10.285c.16-.241.315-.486.482-.742-.382-.252-.723-.5-1.087-.716a13.941,13.941,0,0,0-6.163-2.078,17.116,17.116,0,0,1-6.4-1.558c-6.411-3.083-9.773-8.263-10.352-15.3-.1-1.206-.059-1.213-1.291-1.213-5.7,0-11.39,0-17.086.026a4.98,4.98,0,0,0-4.656,3.157,7.312,7.312,0,0,0-.453,3.358q.011,33.6.011,67.193v.738m115.3,4.063H80.152q-35.229,0-70.458,0c-.4,0-.542.07-.531.512.033,1.306.07,2.619-.011,3.925a5.481,5.481,0,0,0,5.528,5.766c.827,0,1.658-.03,2.486-.03q49.5-.006,99,0c.809,0,1.621.019,2.43.048a5.472,5.472,0,0,0,5.8-4.408,15.091,15.091,0,0,0,.085-2.753c.011-.991,0-1.985,0-3.057M70.561,83.7c.137-.122.371-.3.575-.5.827-.816,1.6-1.7,2.482-2.445a17.1,17.1,0,0,1,2.868-2.022,36.356,36.356,0,0,1,3.892-1.707,27.577,27.577,0,0,0,8.474-4.994c2.553-2.315,5-4.745,7.48-7.135a2.79,2.79,0,0,0,.482-.668,2.278,2.278,0,0,0-1.755-3.384c-.364-.041-.738-.019-1.1-.082a2.606,2.606,0,0,1-2.1-1.51,2.488,2.488,0,0,1,.33-2.649,2.408,2.408,0,0,0,.4-.657,2.194,2.194,0,0,0-.33-2.237,2.421,2.421,0,0,0-2.33-.835c-.49.074-.972.241-1.462.278a2.022,2.022,0,0,1-2.078-2.72,7.98,7.98,0,0,1,.512-1.1,2.352,2.352,0,0,0-3.176-3.12,1.993,1.993,0,0,1-2.679-.7c-.672-.931-.612-1.633.226-2.627.249-.3.523-.571.772-.868a2.106,2.106,0,0,0,.245-2.341,2.06,2.06,0,0,0-1.948-1.3,2.5,2.5,0,0,0-2.178.82c-.211.252-.467.467-.7.7-3.35,3.324-6.667,6.682-10.058,9.962a4.517,4.517,0,0,1-6.549-.015c-.416-.382-.775-.827-1.169-1.25-.145.13-.215.163-.249.223a9.315,9.315,0,0,0-1.584,4.872,29.653,29.653,0,0,0,.334,3.621,12.286,12.286,0,0,1,.174,3.844,10.31,10.31,0,0,1-3.736,6.515c5.306,5.335,10.6,10.66,15.943,16.028M47.829,12.5c-.052.1-.1.193-.148.289.531.475,1.087.931,1.592,1.436,1.97,1.966,4.026,3.859,5.858,5.944a6.7,6.7,0,0,1,1.629,6.66c-.108.352-.223.7-.352,1.046a7.756,7.756,0,0,1-7.439,4.734A7.938,7.938,0,0,1,43.8,30.158c-2.015-2-4.018-4.011-6.033-6.011-.289-.289-.612-.538-.976-.857a13.9,13.9,0,0,0,.972,7.758A13.073,13.073,0,0,0,48.76,39.081a24.114,24.114,0,0,1,4.545.842,19.781,19.781,0,0,1,8.378,5.261c.579.594,1.161,1.184,1.773,1.744.516.471.827.453,1.358.007.156-.13.3-.271.445-.412q3.122-3.1,6.241-6.2a4.241,4.241,0,0,1,.675-.438c-.957-.965-1.733-1.774-2.538-2.553a18.73,18.73,0,0,1-5.287-8.411,33.95,33.95,0,0,1-.935-4.76,12.784,12.784,0,0,0-2.226-6.044A13.231,13.231,0,0,0,49.9,12.378c-.69,0-1.38.078-2.067.122M66.773,140.138v0H88.719c1.529,0,3.057-.022,4.59-.019.523,0,.779-.271.709-.749a11.71,11.71,0,0,0-.557-2.786,7.345,7.345,0,0,0-6.1-4.734,16.839,16.839,0,0,0-2.208-.067H48.723c-.646,0-1.287.037-1.933.033a7.626,7.626,0,0,0-7.124,6.953c-.052,1.325-.033,1.373,1.287,1.373h25.82m10.852-12.374c-.249-.972-.482-1.9-.72-2.816-.579-2.241-1.176-4.478-1.725-6.727-.093-.371-.252-.412-.568-.412q-3.317.022-6.63.019c-2.964,0-5.933-.015-8.9-.019-.237,0-.49-.089-.583.312-.312,1.362-.668,2.712-1.017,4.063-.479,1.848-.961,3.692-1.451,5.58Zm-7.617-38a4.37,4.37,0,0,0-.345-1.072,6.121,6.121,0,0,0-.92-1.02Q60.423,79.345,52.1,71.023c-.9-.9-1.777-1.822-2.7-2.683a1.971,1.971,0,0,0-2.79-.019,1.913,1.913,0,0,0-.182,2.768,8.547,8.547,0,0,0,.779.857q9.355,9.328,18.718,18.644a6.351,6.351,0,0,0,.95.839,1.994,1.994,0,0,0,2.2.022,1.846,1.846,0,0,0,.946-1.688M99.5,67.29a.272.272,0,0,0-.067.048q-3.74,3.606-7.484,7.205c-.341.323-.26.557.015.827.761.749,1.529,1.5,2.282,2.252a5.566,5.566,0,0,0,8.2-7.5c-.883-1.005-1.933-1.866-2.95-2.835M44.464,25.119c.787.835,1.569,1.74,2.434,2.556a3.49,3.49,0,0,0,3.9.7,3.868,3.868,0,0,0,2.3-3.258Z" transform="translate(318.168 1614.18)" fill="#318202"/>
    <g id="Grupo_1072080" data-name="Grupo 1072080" transform="translate(-10.113 1.946)">
      <path id="Unión_14" data-name="Unión 14" d="M12787.823,11728.255v0h0v0Zm-7.062,0h0Zm-14.366-14.128v0h0v0Zm18.367-7.062v0h0v0Zm-25.429,7.062h0Zm18.364-7.062h0Z" transform="translate(-12464.221 -9950.771)" fill="none" stroke="#0a5e6b" stroke-width="4"/>
    </g>
    <g id="Grupo_1072097" data-name="Grupo 1072097" transform="translate(9.532)">
      <path id="Trazado_609397" data-name="Trazado 609397" d="M2.4,4.809a2.4,2.4,0,1,1,2.4-2.4,2.4,2.4,0,0,1-2.4,2.4" transform="translate(465.468 1621.191) rotate(90)" fill="#1fd27a"/>
      <path id="Trazado_609398" data-name="Trazado 609398" d="M2.4,4.809a2.4,2.4,0,1,1,2.4-2.4,2.4,2.4,0,0,1-2.4,2.4" transform="translate(465.468 1611.22) rotate(90)" fill="#1fd27a"/>
      <path id="Trazado_609399" data-name="Trazado 609399" d="M2.4,4.809a2.4,2.4,0,1,1,2.4-2.4,2.4,2.4,0,0,1-2.4,2.4" transform="translate(465.468 1601.25) rotate(90)" fill="#1fd27a"/>
      <path id="Trazado_609400" data-name="Trazado 609400" d="M2.4,4.809a2.4,2.4,0,1,1,2.4-2.4,2.4,2.4,0,0,1-2.4,2.4" transform="translate(455.623 1621.191) rotate(90)" fill="#1fd27a"/>
      <path id="Trazado_609401" data-name="Trazado 609401" d="M2.4,4.809a2.4,2.4,0,1,1,2.4-2.4,2.4,2.4,0,0,1-2.4,2.4" transform="translate(455.623 1611.22) rotate(90)" fill="#1fd27a"/>
      <path id="Trazado_609402" data-name="Trazado 609402" d="M2.4,4.809a2.4,2.4,0,1,1,2.4-2.4,2.4,2.4,0,0,1-2.4,2.4" transform="translate(455.623 1601.25) rotate(90)" fill="#1fd27a"/>
      <path id="Trazado_609403" data-name="Trazado 609403" d="M2.4,4.809a2.4,2.4,0,1,1,2.4-2.4,2.4,2.4,0,0,1-2.4,2.4" transform="translate(445.777 1621.191) rotate(90)" fill="#1fd27a"/>
      <path id="Trazado_609404" data-name="Trazado 609404" d="M2.4,4.809a2.4,2.4,0,1,1,2.4-2.4,2.4,2.4,0,0,1-2.4,2.4" transform="translate(445.777 1611.22) rotate(90)" fill="#1fd27a"/>
      <path id="Trazado_609405" data-name="Trazado 609405" d="M2.4,4.809a2.4,2.4,0,1,1,2.4-2.4,2.4,2.4,0,0,1-2.4,2.4" transform="translate(445.777 1601.25) rotate(90)" fill="#1fd27a"/>
    </g>
  </g>
</svg>
