<svg xmlns="http://www.w3.org/2000/svg" xmlns:xlink="http://www.w3.org/1999/xlink" width="190" height="188.495" viewBox="0 0 190 188.495">
  <defs>
    <clipPath id="clip-path">
      <rect id="Rectángulo_377631" data-name="Rectángulo 377631" width="188.493" height="188.494" fill="none"/>
    </clipPath>
    <clipPath id="clip-path-2">
      <rect id="Rectángulo_377665" data-name="Rectángulo 377665" width="117.526" height="107.559" fill="none"/>
    </clipPath>
  </defs>
  <g id="Grupo_1072186" data-name="Grupo 1072186" transform="translate(9128 8726)">
    <rect id="Rectángulo_377664" data-name="Rectángulo 377664" width="165" height="165" transform="translate(-9110 -8716)" fill="#fff"/>
    <g id="Grupo_1072134" data-name="Grupo 1072134" transform="translate(-9423.113 -10322.054)">
      <path id="Unión_14" data-name="Unión 14" d="M12787.823,11728.255v0h0v0Zm-7.062,0h0Zm-14.366-14.128v0h0v0Zm18.367-7.062v0h0v0Zm-25.429,7.062h0Zm18.364-7.062h0Z" transform="translate(-12464.221 -9950.771)" fill="none" stroke="#0a5e6b" stroke-width="4"/>
    </g>
    <g id="Grupo_1072129" data-name="Grupo 1072129" transform="translate(-9403.468 -10324)">
      <path id="Trazado_609397" data-name="Trazado 609397" d="M2.4,4.809a2.4,2.4,0,1,1,2.4-2.4,2.4,2.4,0,0,1-2.4,2.4" transform="translate(465.468 1621.191) rotate(90)" fill="#1fd27a"/>
      <path id="Trazado_609398" data-name="Trazado 609398" d="M2.4,4.809a2.4,2.4,0,1,1,2.4-2.4,2.4,2.4,0,0,1-2.4,2.4" transform="translate(465.468 1611.22) rotate(90)" fill="#1fd27a"/>
      <path id="Trazado_609399" data-name="Trazado 609399" d="M2.4,4.809a2.4,2.4,0,1,1,2.4-2.4,2.4,2.4,0,0,1-2.4,2.4" transform="translate(465.468 1601.25) rotate(90)" fill="#1fd27a"/>
      <path id="Trazado_609400" data-name="Trazado 609400" d="M2.4,4.809a2.4,2.4,0,1,1,2.4-2.4,2.4,2.4,0,0,1-2.4,2.4" transform="translate(455.623 1621.191) rotate(90)" fill="#1fd27a"/>
      <path id="Trazado_609401" data-name="Trazado 609401" d="M2.4,4.809a2.4,2.4,0,1,1,2.4-2.4,2.4,2.4,0,0,1-2.4,2.4" transform="translate(455.623 1611.22) rotate(90)" fill="#1fd27a"/>
      <path id="Trazado_609402" data-name="Trazado 609402" d="M2.4,4.809a2.4,2.4,0,1,1,2.4-2.4,2.4,2.4,0,0,1-2.4,2.4" transform="translate(455.623 1601.25) rotate(90)" fill="#1fd27a"/>
      <path id="Trazado_609403" data-name="Trazado 609403" d="M2.4,4.809a2.4,2.4,0,1,1,2.4-2.4,2.4,2.4,0,0,1-2.4,2.4" transform="translate(445.777 1621.191) rotate(90)" fill="#1fd27a"/>
      <path id="Trazado_609404" data-name="Trazado 609404" d="M2.4,4.809a2.4,2.4,0,1,1,2.4-2.4,2.4,2.4,0,0,1-2.4,2.4" transform="translate(445.777 1611.22) rotate(90)" fill="#1fd27a"/>
      <path id="Trazado_609405" data-name="Trazado 609405" d="M2.4,4.809a2.4,2.4,0,1,1,2.4-2.4,2.4,2.4,0,0,1-2.4,2.4" transform="translate(445.777 1601.25) rotate(90)" fill="#1fd27a"/>
    </g>
    <g id="Grupo_1072136" data-name="Grupo 1072136" transform="translate(-9086 -8687)">
      <g id="Grupo_1072136-2" data-name="Grupo 1072136" transform="translate(0 0)" clip-path="url(#clip-path-2)">
        <path id="Trazado_609451" data-name="Trazado 609451" d="M25.233,15.5c2.029-.445,4.055-.9,6.081-1.334q4.259-.918,8.515-1.822,4.049-.859,8.1-1.715c.512-.11,1.021-.232,1.535-.323a.716.716,0,0,0,.634-.695,9.023,9.023,0,0,1,2.035-4.6A8.835,8.835,0,0,1,66.56,6.318c.161.268.329.271.588.21q3.619-.818,7.244-1.621c.759-.168,1.52-.32,2.276-.487a2.339,2.339,0,0,1,2.687,1.663,2.179,2.179,0,0,1-1.572,2.778c-1.758.414-3.531.768-5.295,1.158-1.487.332-2.967.685-4.454,1.011-.283.061-.344.2-.359.457a8.047,8.047,0,0,1-2.008,4.786,2.079,2.079,0,0,0-.533,1.45q.023,30.593.009,61.187V82.1c.195.009.347.021.5.021,1.749.006,3.5,0,5.249.015a2.32,2.32,0,0,1,2.126,1.133,2.372,2.372,0,0,1,.347,1.063c.043,1.843.049,3.686.03,5.529,0,.426.064.576.533.567,1.7-.03,3.4-.012,5.1-.009a2.7,2.7,0,0,1,3.022,3.022c0,2.449.018,4.9-.015,7.345a4.342,4.342,0,0,1-.344,1.563,2.2,2.2,0,0,1-2.224,1.4c-2.4-.009-4.8,0-7.2,0q-16.505,0-33.008,0a13.225,13.225,0,0,1-1.474-.052,2.109,2.109,0,0,1-1.907-2.139q-.018-4.455,0-8.917a2.187,2.187,0,0,1,2.349-2.218c1.843-.021,3.689-.009,5.532-.009h.567c.012-.192.024-.344.024-.5.006-1.654,0-3.305.015-4.96a2.546,2.546,0,0,1,2.876-2.833c1.779,0,3.561,0,5.4,0,.009-.174.021-.341.021-.506q0-32.142.006-64.282a.988.988,0,0,0-.277-.71,12.141,12.141,0,0,1-1.145-1.581c-.216-.353-.359-.43-.8-.3-1.2.341-2.44.561-3.665.826q-2.7.58-5.4,1.158c-2.62.567-5.237,1.142-7.857,1.7q-3.35.713-6.708,1.389a.623.623,0,0,0-.567.573,5.692,5.692,0,0,1-1.916,3.266c-.688.615-.682.426-.189,1.252,2.659,4.442,5.167,8.966,7.47,13.6a74.717,74.717,0,0,1,4.094,9.627c.3.9.548,1.825.783,2.745.085.335.232.414.557.411a6.4,6.4,0,0,1,1.605.1A2.341,2.341,0,0,1,40.5,53.854,20.352,20.352,0,0,1,24.672,73.278,20.3,20.3,0,0,1,1.087,60.017,22.748,22.748,0,0,1,.015,54.375c-.119-1.593.49-2.586,1.8-2.976a4.508,4.508,0,0,1,1.462-.1.707.707,0,0,0,.841-.6c.625-2,1.212-4.006,1.968-5.953A86.263,86.263,0,0,1,10.945,34.57c1.807-3.3,3.683-6.559,5.547-9.828a.641.641,0,0,0-.171-.975,5.817,5.817,0,0,1-2.1-5.84,5.92,5.92,0,0,1,4.755-4.838,5.861,5.861,0,0,1,6.154,2.294c.03.037.064.07.1.116M35.645,55.91c-.213-.009-.3-.018-.4-.018-2.845,0-5.688.015-8.533.015q-10.7,0-21.407-.018c-.454,0-.527.094-.4.646a15.846,15.846,0,0,0,2.224,5.477,15.349,15.349,0,0,0,10.93,6.967,14.975,14.975,0,0,0,7.771-.838,15.28,15.28,0,0,0,9.517-10.553,16.919,16.919,0,0,0,.3-1.679m-3.683-4.637C29.181,42.7,24.7,35.091,20.288,27.347c-.155.232-.265.381-.359.542A163.8,163.8,0,0,0,11.7,43.341c-1.027,2.263-1.858,4.612-2.757,6.934a5.182,5.182,0,0,0-.186,1ZM57.275,19.46V62.585q0,9.56,0,19.119c0,.338.11.442.439.436.746-.021,1.493-.034,2.239-.009.4.015.469-.137.469-.5q-.014-30.607-.009-61.217V19.46ZM77.3,99.1c0-1.289,0-2.51.006-3.732,0-.274-.146-.311-.363-.3-.494.006-.984.009-1.478.009H40.986c-.152,0-.3.015-.46.024v4ZM68.766,86.84a1.31,1.31,0,0,0-.177-.043q-9.6,0-19.2-.012c-.323,0-.363.149-.359.408q.023,1.238.024,2.477c0,.868-.125.752.756.752q8.6.009,17.206,0c.475,0,.954.006,1.429-.021.113-.009.311-.146.311-.225.021-1.106.015-2.215.015-3.336M63.13,10.687a4.283,4.283,0,0,0-3.976-4.234,4.185,4.185,0,0,0-4.5,4.152,4.083,4.083,0,0,0,4.152,4.256,4.155,4.155,0,0,0,4.323-4.174M21.742,19.064a1.473,1.473,0,0,0-1.468-1.532A1.564,1.564,0,0,0,18.7,19.095a1.5,1.5,0,0,0,1.548,1.52,1.431,1.431,0,0,0,1.493-1.551" transform="translate(0 3.806)" fill="#318202"/>
        <path id="Trazado_609452" data-name="Trazado 609452" d="M42.063,11.239a6.249,6.249,0,0,1-.749-9.584,6.154,6.154,0,1,1,7.674,9.578c.46.783.926,1.572,1.389,2.361A163.705,163.705,0,0,1,58.784,29.6a40.894,40.894,0,0,1,2.827,7.915,1.237,1.237,0,0,0,.171.49.8.8,0,0,0,.439.3,6.625,6.625,0,0,0,.954.012,2.445,2.445,0,0,1,2.6,2.556,18.331,18.331,0,0,1-.652,4.749,20.034,20.034,0,0,1-3.531,7.22,20.236,20.236,0,0,1-36.3-11.732,2.485,2.485,0,0,1,2.736-2.794c1.145,0,1.164.006,1.45-1.075a61.237,61.237,0,0,1,4.466-11.208Q37.5,18.791,41.7,11.894c.128-.213.241-.442.359-.655m18.921,31.7H30.237c-.344,3.311,3.33,8.929,7.555,11.2,5.788,3.107,11.524,2.833,16.935-.935a15.113,15.113,0,0,0,6.257-10.263M57.075,38.3c-.043-.228-.064-.433-.119-.625a47.5,47.5,0,0,0-2.888-7.394c-2.544-5.438-5.462-10.671-8.53-15.881-.076.122-.128.2-.174.274-.908,1.566-1.84,3.119-2.72,4.7A117.581,117.581,0,0,0,34.56,36.171c-.25.688-.42,1.4-.634,2.129ZM44.034,6.149a1.324,1.324,0,0,0,1.432,1.468,1.518,1.518,0,0,0,1.6-1.474,1.552,1.552,0,0,0-1.575-1.5,1.355,1.355,0,0,0-1.456,1.5" transform="translate(51.754 0)" fill="#318202"/>
        <path id="Trazado_609453" data-name="Trazado 609453" d="M33.275,4.385A2.178,2.178,0,0,1,31.66,6.591a16.16,16.16,0,0,1-2.178.481,2.315,2.315,0,0,1-2.471-1.907,2.287,2.287,0,0,1,1.52-2.5c.713-.213,1.45-.341,2.172-.524a2.249,2.249,0,0,1,2.571,2.245" transform="translate(55.198 4.288)" fill="#318202"/>
      </g>
    </g>
  </g>
</svg>
