<svg xmlns="http://www.w3.org/2000/svg" xmlns:xlink="http://www.w3.org/1999/xlink" width="190" height="188.495" viewBox="0 0 190 188.495">
  <defs>
    <clipPath id="clip-path">
      <rect id="Rectángulo_377631" data-name="Rectángulo 377631" width="188.493" height="188.494" fill="none"/>
    </clipPath>
    <clipPath id="clip-path-2">
      <rect id="Rectángulo_377669" data-name="Rectángulo 377669" width="105.556" height="105.19" fill="none"/>
    </clipPath>
  </defs>
  <g id="Grupo_1072188" data-name="Grupo 1072188" transform="translate(9128 7849)">
    <rect id="Rectángulo_377668" data-name="Rectángulo 377668" width="165" height="165" transform="translate(-9110 -7839)" fill="#fff"/>
    <g id="Grupo_1072151" data-name="Grupo 1072151" transform="translate(-9423.113 -9445.054)">
      <path id="Unión_14" data-name="Unión 14" d="M12787.823,11728.255v0h0v0Zm-7.062,0h0Zm-14.366-14.128v0h0v0Zm18.367-7.062v0h0v0Zm-25.429,7.062h0Zm18.364-7.062h0Z" transform="translate(-12464.221 -9950.771)" fill="none" stroke="#0a5e6b" stroke-width="4"/>
    </g>
    <g id="Grupo_1072146" data-name="Grupo 1072146" transform="translate(-9403.468 -9447)">
      <path id="Trazado_609397" data-name="Trazado 609397" d="M2.4,4.809a2.4,2.4,0,1,1,2.4-2.4,2.4,2.4,0,0,1-2.4,2.4" transform="translate(465.468 1621.191) rotate(90)" fill="#1fd27a"/>
      <path id="Trazado_609398" data-name="Trazado 609398" d="M2.4,4.809a2.4,2.4,0,1,1,2.4-2.4,2.4,2.4,0,0,1-2.4,2.4" transform="translate(465.468 1611.22) rotate(90)" fill="#1fd27a"/>
      <path id="Trazado_609399" data-name="Trazado 609399" d="M2.4,4.809a2.4,2.4,0,1,1,2.4-2.4,2.4,2.4,0,0,1-2.4,2.4" transform="translate(465.468 1601.25) rotate(90)" fill="#1fd27a"/>
      <path id="Trazado_609400" data-name="Trazado 609400" d="M2.4,4.809a2.4,2.4,0,1,1,2.4-2.4,2.4,2.4,0,0,1-2.4,2.4" transform="translate(455.623 1621.191) rotate(90)" fill="#1fd27a"/>
      <path id="Trazado_609401" data-name="Trazado 609401" d="M2.4,4.809a2.4,2.4,0,1,1,2.4-2.4,2.4,2.4,0,0,1-2.4,2.4" transform="translate(455.623 1611.22) rotate(90)" fill="#1fd27a"/>
      <path id="Trazado_609402" data-name="Trazado 609402" d="M2.4,4.809a2.4,2.4,0,1,1,2.4-2.4,2.4,2.4,0,0,1-2.4,2.4" transform="translate(455.623 1601.25) rotate(90)" fill="#1fd27a"/>
      <path id="Trazado_609403" data-name="Trazado 609403" d="M2.4,4.809a2.4,2.4,0,1,1,2.4-2.4,2.4,2.4,0,0,1-2.4,2.4" transform="translate(445.777 1621.191) rotate(90)" fill="#1fd27a"/>
      <path id="Trazado_609404" data-name="Trazado 609404" d="M2.4,4.809a2.4,2.4,0,1,1,2.4-2.4,2.4,2.4,0,0,1-2.4,2.4" transform="translate(445.777 1611.22) rotate(90)" fill="#1fd27a"/>
      <path id="Trazado_609405" data-name="Trazado 609405" d="M2.4,4.809a2.4,2.4,0,1,1,2.4-2.4,2.4,2.4,0,0,1-2.4,2.4" transform="translate(445.777 1601.25) rotate(90)" fill="#1fd27a"/>
    </g>
    <g id="Grupo_1072153" data-name="Grupo 1072153" transform="translate(-9080 -7809)">
      <g id="Grupo_1072153-2" data-name="Grupo 1072153" transform="translate(0 0)" clip-path="url(#clip-path-2)">
        <path id="Trazado_609475" data-name="Trazado 609475" d="M33.6,13.737c-1.074,1.053-2.1,2.051-3.107,3.061a.364.364,0,0,0-.015.345q2.65,4.32,5.321,8.624a55.99,55.99,0,0,1,3.9,7.426c.2.475.321,1.11.687,1.346.345.224.968.027,1.467.009l5.753-.209a3.18,3.18,0,0,0,.6-.048,7.339,7.339,0,0,1-2.329-6.809,17.6,17.6,0,0,1-6.712-5.055,1.775,1.775,0,0,1-.39-1.7,1.685,1.685,0,0,1,2.795-.7c.65.662,1.295,1.331,1.954,1.987.2.2.439.363.768.632-.027-.309-.045-.478-.06-.647-.079-.832-.215-1.664-.227-2.5-.033-2.057-.015-4.114-.012-6.168A8.774,8.774,0,0,1,60.752,9.626a10.05,10.05,0,0,1,.786,4.044c.021,2.072.024,4.144-.006,6.216-.009.711-.139,1.422-.209,2.133-.018.154-.018.312-.024.466l.142.079a22.037,22.037,0,0,0,2.063-2.09c.929-1.222,1.76-2.517,2.574-3.817,2.075-3.315,4.108-6.658,6.177-9.979a5.642,5.642,0,0,1,10.082.768,5.042,5.042,0,0,1-.312,4.81c-1.273,2.145-2.6,4.259-3.893,6.395-2.438,4.02-4.894,8.028-7.29,12.072-.7,1.189-1.228,2.48-1.83,3.727a3.8,3.8,0,0,0-.139.42c.877.067,1.712.112,2.541.2,2.511.257,5.024.514,7.535.8,1.951.221,3.9.451,5.841.741,1.9.281,3.778.65,5.666.974.33.057.662.094,1,.133a1.9,1.9,0,0,1,1.833,2.045c.006,2.042,0,4.084,0,6.122,0,.163.018.327.024.442,2.012.384,3.966.771,5.923,1.128,1.376.251,2.762.448,4.138.7a4.357,4.357,0,0,1,1.249.408,1.592,1.592,0,0,1,.526,2.508c-.629.8-1.286,1.585-1.945,2.365a.49.49,0,0,0-.051.647c.7,1.228,1.373,2.474,2.075,3.7a1.832,1.832,0,0,1-.012,2.018,1.748,1.748,0,0,1-1.954.62q-5.386-1.479-10.772-2.958-4.179-1.143-8.361-2.272a1.634,1.634,0,0,1-1.31-1.3C82.453,52.2,82.1,50.5,81.73,48.81a.5.5,0,0,0-.345-.3q-1.892-.295-3.8-.535a1.981,1.981,0,0,1-1.337-.7,1.443,1.443,0,0,1-.245-1.77,1.794,1.794,0,0,1,1.815-.98c1.963.236,3.926.466,5.886.735,1.987.275,3.969.593,5.974.9v-5.23a215.992,215.992,0,0,0-73.822.018V46.2c1.364-.236,2.719-.5,4.081-.7,1.821-.269,3.645-.517,5.475-.72,3.373-.378,6.745-.741,10.124-1.056,2.078-.194,4.162-.29,6.246-.414,6.271-.378,12.55-.23,18.827-.148,3.3.042,6.6.378,9.9.6a1.8,1.8,0,0,1,1.718,2.347,1.893,1.893,0,0,1-1.99,1.143c-1.337-.088-2.674-.178-4.011-.29-.414-.036-.665-.024-.7.514-.07,1.289-.227,2.571-.327,3.86-.054.729-.048,1.461-.1,2.19a1.712,1.712,0,0,1-1.7,1.676c-.306.018-.608.015-.914.015q-9.1-.014-18.195-.033c-.088,0-.175.012-.315.021v.557q0,13.548,0,27.1a2,2,0,0,1-.944,1.945,1.586,1.586,0,0,1-2.157-.39,2.315,2.315,0,0,1-.493-1.573q.009-5.735,0-11.467c0-5.726.012-11.452-.006-17.178,0-1.748-.076-3.5-.154-5.248a11.755,11.755,0,0,0-.287-1.8c-.018-.088-.245-.2-.366-.188q-2.777.222-5.551.475c-2.514.227-5.03.454-7.544.7-.741.073-1.473.23-2.214.321-.327.042-.442.185-.505.511-.327,1.655-.7,3.3-1.044,4.952a1.545,1.545,0,0,1-1.2,1.234q-2.963.826-5.935,1.633-3.389.926-6.773,1.851c-1.791.49-3.581.971-5.369,1.461-.366.1-.732.2-1.1.321a1.725,1.725,0,0,1-1.972-.535A1.8,1.8,0,0,1,.26,57.876c.678-1.207,1.346-2.42,2.039-3.618a.693.693,0,0,0-.064-.962C1.664,52.682,1.15,52.017.62,51.37c-1.116-1.364-.632-2.78,1.1-3.119,1.567-.309,3.143-.569,4.722-.817a1.76,1.76,0,0,1,1.978.693A1.668,1.668,0,0,1,7.457,50.7c-.793.209-1.606.333-2.483.508.236.293.454.569.678.841a2.1,2.1,0,0,1,.181,3.013,4.81,4.81,0,0,0-.445.835c3.119-.647,6.153-1.579,9.274-2.411a2.449,2.449,0,0,0-.218-.29,6.812,6.812,0,0,1-2.169-4.928c-.088-2.892-.036-5.787-.015-8.681a1.846,1.846,0,0,1,1.691-1.851c2.263-.39,4.522-.8,6.794-1.131q4.292-.617,8.6-1.1c2.284-.254,4.58-.4,6.87-.6.13-.012.26-.033.475-.064-.336-.738-.638-1.431-.962-2.111a95.592,95.592,0,0,0-5.142-8.878c-2.323-3.805-4.64-7.614-6.984-11.407a5.623,5.623,0,0,1,9.356-6.225c.759,1.083,1.416,2.235,2.114,3.361,1.11,1.782,2.223,3.563,3.318,5.354a1.711,1.711,0,1,1-2.919,1.782c-.526-.838-1.044-1.682-1.567-2.52-.094-.151-.2-.3-.309-.457M57.243,34.315l.414.024c2.3.088,4.6.157,6.891.284a.834.834,0,0,0,.95-.584c.962-2.051,1.854-4.144,2.983-6.1,2.087-3.609,4.317-7.133,6.5-10.684.16-.26.166-.411-.07-.617-.287-.248-.529-.544-.8-.814-.693-.7-1.391-1.394-2.13-2.133-.118.163-.209.278-.284.4q-1.96,3.163-3.917,6.325a17.212,17.212,0,0,1-7.568,6.791.724.724,0,0,0-.508.8,8.711,8.711,0,0,1-.23,2.943,7.731,7.731,0,0,1-2.229,3.364M58.024,15a1.654,1.654,0,0,0-.2-.03c-3.333,0-6.67,0-10-.009-.336,0-.363.157-.36.42.015,1.721.012,3.439.039,5.16a4.233,4.233,0,0,0,.154,1.171,5.37,5.37,0,0,0,6.343,3.66,5.245,5.245,0,0,0,4.026-4.492c.057-.647.006-1.307,0-1.96V15m3.963,31.831a159.173,159.173,0,0,0-18.455-.015c.133,1.6.263,3.176.393,4.752.024.293.227.26.433.26q8.086,0,16.177-.006h1.028c.142-1.685.281-3.33.423-4.991M100.142,56l.064-.166c-.212-.366-.433-.726-.632-1.1a1.906,1.906,0,0,1,.245-2.617c.23-.287.448-.584.723-.941-2.571-.469-5.033-.914-7.541-1.367a6.818,6.818,0,0,1-2.193,3.663L100.142,56M57.661,11.393c-.357-2.12-2.837-3.548-5.814-3.37-1.682.1-3.9,1.975-3.951,3.37Zm19.444,2.4c.6-1.013,1.267-2.136,1.924-3.264a2.023,2.023,0,0,0,.163-.472,2.147,2.147,0,0,0-3.769-1.906c-.575.8-1.08,1.649-1.67,2.562L77.1,13.794M49.212,28.2A3.8,3.8,0,0,0,51.085,32.1a3.562,3.562,0,0,0,4.1-.544,3.441,3.441,0,0,0,1.031-3.342,8.821,8.821,0,0,1-7.009-.021M28.443,13.943c.408-.39.7-.659.977-.938.687-.69,1.376-1.379,2.042-2.09a.543.543,0,0,0,.091-.5c-.408-.711-.859-1.394-1.292-2.093a2.085,2.085,0,0,0-2.3-.932,2,2,0,0,0-1.618,2.589c.575,1.355,1.373,2.617,2.1,3.96M16.075,49.7c.1.2.16.339.242.463a3.883,3.883,0,0,0,2.84,1.7c.357.057.56-.036.62-.4.13-.786.266-1.573.414-2.459l-4.117.7M85.363,49c.148.9.275,1.673.4,2.45.054.33.23.5.569.4a11.091,11.091,0,0,0,1.636-.523,3.335,3.335,0,0,0,1.5-1.618c-1.391-.242-2.725-.472-4.1-.708" transform="translate(0.015 7.84)" fill="#318202"/>
        <path id="Trazado_609476" data-name="Trazado 609476" d="M23.916,50.268v-.6q0-10.921,0-21.843a2.585,2.585,0,0,1,.529-1.661,1.609,1.609,0,0,1,2.568-.045,2.522,2.522,0,0,1,.569,1.646c-.006,3.367.121,6.739-.048,10.1a3.532,3.532,0,0,0,4.921,3.143A3.331,3.331,0,0,0,34.527,37.8c-.015-4.495-.006-8.987,0-13.482a3.635,3.635,0,0,1,.073-.768,1.644,1.644,0,0,1,1.815-1.491,1.78,1.78,0,0,1,1.673,1.827c.018.457.015.917.015,1.373q0,5.894,0,11.788a7.466,7.466,0,0,1-2.39,5.859,6.754,6.754,0,0,1-4.471,1.8,6.568,6.568,0,0,1-3.267-.678,2.579,2.579,0,0,0-.254-.1.663.663,0,0,0-.145.006v.478c0,4.631.012,9.262-.018,13.893a3.52,3.52,0,0,1-.442,1.449,1.412,1.412,0,0,1-1.361.759q-4.025,0-8.046.015c-.868,0-1.736.018-2.6-.015a1.7,1.7,0,0,1-1.67-1.476,16.819,16.819,0,0,1,.227-5.133,5.328,5.328,0,0,1,5.049-3.826c1.522.048,3.043.051,4.568.085a4.748,4.748,0,0,1,.638.1m0,6.83V55.217a1.689,1.689,0,0,0-1.667-1.742c-1.171-.027-2.344-.021-3.518,0a1.694,1.694,0,0,0-1.7,1.319,19.51,19.51,0,0,0-.021,2.3Z" transform="translate(27.032 44.653)" fill="#318202"/>
        <path id="Trazado_609477" data-name="Trazado 609477" d="M21.529,50.96A4.44,4.44,0,0,1,22.046,50c1.888-2.232,3.805-4.437,5.711-6.655Q35.2,34.692,42.652,26.038a2.48,2.48,0,0,1,1.289-1.031,1.667,1.667,0,0,1,1.857.629,1.761,1.761,0,0,1-.112,2.087c-.765.929-1.555,1.836-2.338,2.75q-8.861,10.3-17.729,20.6c-.387.451-.753.92-1.177,1.337a1.621,1.621,0,0,1-2.372.091c-.43-.342-.5-.814-.541-1.537" transform="translate(43.594 50.519)" fill="#318202"/>
        <path id="Trazado_609478" data-name="Trazado 609478" d="M6.081,24.952a1.722,1.722,0,0,1,1.186.756q2.205,2.6,4.422,5.176,7.986,9.279,15.974,18.561a6.23,6.23,0,0,1,.681.914,1.593,1.593,0,0,1-.369,2.054,1.561,1.561,0,0,1-2.123.054,7.186,7.186,0,0,1-.859-.883q-8.3-9.642-16.6-19.287-1.756-2.046-3.515-4.09a7.74,7.74,0,0,1-.472-.617,1.5,1.5,0,0,1-.067-1.751,1.781,1.781,0,0,1,1.742-.886" transform="translate(8.281 50.525)" fill="#318202"/>
        <path id="Trazado_609479" data-name="Trazado 609479" d="M25.032,21.491a1.672,1.672,0,0,1,.644-1.325q3.462-3.453,6.912-6.915c1.582-1.582,3.158-3.173,4.743-4.752a5.794,5.794,0,0,1,.759-.656,1.762,1.762,0,0,1,2.184.194,1.556,1.556,0,0,1,.16,2.184,4.3,4.3,0,0,1-.445.52Q34.3,16.417,28.6,22.087a3.041,3.041,0,0,1-1.518,1.1,1.678,1.678,0,0,1-2.045-1.7" transform="translate(50.675 15.292)" fill="#318202"/>
        <path id="Trazado_609480" data-name="Trazado 609480" d="M17.491,21.434a1.732,1.732,0,0,1-3.116,1.11c-.4-.517-.771-1.056-1.152-1.588q-3.739-5.213-7.471-10.43a1.979,1.979,0,0,1-.46-1.7A1.573,1.573,0,0,1,6.634,7.574a1.554,1.554,0,0,1,1.618.611c.744.983,1.461,1.987,2.181,2.986Q13.619,15.6,16.8,20.034a2.928,2.928,0,0,1,.69,1.4" transform="translate(10.613 15.267)" fill="#318202"/>
        <path id="Trazado_609481" data-name="Trazado 609481" d="M9.351,23.264a1.405,1.405,0,0,1,1.273.681c.557.889,1.089,1.794,1.612,2.7q2.727,4.723,5.442,9.453a2,2,0,0,1,.03,2.272A1.659,1.659,0,0,1,14.95,38.2c-.593-.9-1.1-1.86-1.636-2.795Q10.6,30.673,7.89,25.944A1.524,1.524,0,0,1,8.2,23.718,5.046,5.046,0,0,1,9.3,23.149l.054.115" transform="translate(15.29 46.875)" fill="#318202"/>
        <path id="Trazado_609482" data-name="Trazado 609482" d="M31.475,23.2a1.7,1.7,0,0,1,1.646,1.933,3.538,3.538,0,0,1-.4,1.059q-3.262,5.726-6.552,11.44a4.269,4.269,0,0,1-.526.741,1.519,1.519,0,0,1-2.126.266,1.577,1.577,0,0,1-.6-2.175c1.4-2.493,2.825-4.97,4.241-7.453q1.325-2.319,2.644-4.637A2.032,2.032,0,0,1,31.475,23.2" transform="translate(45.953 46.976)" fill="#318202"/>
        <path id="Trazado_609483" data-name="Trazado 609483" d="M7.06,7.085c0,.517.018.986,0,1.455A1.844,1.844,0,0,1,4.71,10.382a2.182,2.182,0,0,1-1.3-2.024c-.012-.408,0-.817,0-1.273-.414,0-.789-.012-1.165,0A2.7,2.7,0,0,1,.7,6.591,1.63,1.63,0,0,1,.844,3.824a5.47,5.47,0,0,1,1.431-.387A7.312,7.312,0,0,1,3.4,3.424a6.486,6.486,0,0,1,.012-1.168A4.355,4.355,0,0,1,3.869.8,1.6,1.6,0,0,1,6.7.908,3.674,3.674,0,0,1,7.051,2.16a9.236,9.236,0,0,1,.012,1.267c.478,0,.917-.009,1.355,0a2.313,2.313,0,0,1,1.664.741,1.559,1.559,0,0,1-.133,2.308,2.37,2.37,0,0,1-1.582.608c-.411,0-.823,0-1.307,0" transform="translate(0 0)" fill="#318202"/>
        <path id="Trazado_609484" data-name="Trazado 609484" d="M7.049,8.643c.6,0,1.128-.015,1.658,0a1.752,1.752,0,0,1,1.727,2.241,2.029,2.029,0,0,1-1.96,1.3c-.454.012-.907,0-1.425,0a7.163,7.163,0,0,1-.018,1.376A3.646,3.646,0,0,1,6.5,15.032a1.594,1.594,0,0,1-2.562-.018A2.324,2.324,0,0,1,3.389,13.5c0-.411,0-.82,0-1.3-.405,0-.8.03-1.18-.006a4.344,4.344,0,0,1-1.156-.221A1.613,1.613,0,0,1,.013,10.183,1.593,1.593,0,0,1,1.335,8.74c.653-.112,1.328-.106,2.009-.154a16.229,16.229,0,0,1,.151-1.827A1.755,1.755,0,0,1,5.851,5.34,1.965,1.965,0,0,1,7.046,7.224c.015.454,0,.907,0,1.419" transform="translate(0.011 10.611)" fill="#318202"/>
        <path id="Trazado_609485" data-name="Trazado 609485" d="M34.348,3.408c.478,0,.935-.021,1.388,0a2.174,2.174,0,0,1,1.8.914,1.488,1.488,0,0,1-.4,2.229,4.255,4.255,0,0,1-1.479.5,7.647,7.647,0,0,1-1.352.015c0,.188.009.363,0,.538a11.36,11.36,0,0,1-.1,1.543A1.718,1.718,0,0,1,30.83,8.92c-.036-.59-.006-1.183-.006-1.854a9.331,9.331,0,0,1-1.2-.009,6.075,6.075,0,0,1-1.355-.33,1.408,1.408,0,0,1-.9-1.452,1.479,1.479,0,0,1,.889-1.512A5.711,5.711,0,0,1,29.6,3.421a8.584,8.584,0,0,1,1.222-.012V1.817A1.711,1.711,0,0,1,32.233.024a1.663,1.663,0,0,1,2.006,1.461,18.331,18.331,0,0,1,.109,1.924" transform="translate(55.407 0.019)" fill="#318202"/>
        <path id="Trazado_609486" data-name="Trazado 609486" d="M37.842,8.144c.7,0,1.334-.033,1.966.009a1.67,1.67,0,0,1,1.509,1.561,1.618,1.618,0,0,1-1.343,1.742c-.684.1-1.385.094-2.133.136,0,.493.018.989,0,1.485a1.958,1.958,0,0,1-.69,1.576,1.549,1.549,0,0,1-1.733.306,1.856,1.856,0,0,1-1.14-1.582c-.045-.587-.009-1.177-.009-1.827-.239,0-.414,0-.593,0a12.861,12.861,0,0,1-1.41-.06,1.556,1.556,0,0,1-1.4-1.76,1.622,1.622,0,0,1,1.531-1.576,13.129,13.129,0,0,1,1.5-.033c.3.009.372-.1.363-.366-.009-.442-.009-.883.015-1.325a1.787,1.787,0,0,1,2.617-1.57,1.907,1.907,0,0,1,.944,1.757c.042.481.009.971.009,1.528" transform="translate(62.484 9.428)" fill="#318202"/>
        <path id="Trazado_609487" data-name="Trazado 609487" d="M8.2,37.046c-1.751,0-3.5.015-5.257-.006a1.815,1.815,0,0,1-1.767-1.5A1.778,1.778,0,0,1,2.36,33.749a3.474,3.474,0,0,1,.768-.1q5.073-.009,10.145,0a1.712,1.712,0,0,1,1.709.9,1.675,1.675,0,0,1-1.391,2.477c-1.8.039-3.6.009-5.393.009v.006" transform="translate(2.338 68.127)" fill="#318202"/>
        <path id="Trazado_609488" data-name="Trazado 609488" d="M34.9,37.036c-1.736,0-3.473.015-5.209-.006a1.681,1.681,0,0,1-1.694-2.154,1.614,1.614,0,0,1,1.352-1.189,2.755,2.755,0,0,1,.5-.039q5.118,0,10.236,0a1.639,1.639,0,0,1,1.748,2.12,1.613,1.613,0,0,1-1.543,1.258c-1.8.018-3.594.006-5.39.006v0" transform="translate(56.584 68.128)" fill="#318202"/>
        <path id="Trazado_609489" data-name="Trazado 609489" d="M14.632,17.43a1.742,1.742,0,0,1-2.447,1.525c-1.05-.548-2.051-1.189-3.07-1.8q-2.881-1.715-5.762-3.436a1.776,1.776,0,0,1-1-1.791,1.631,1.631,0,0,1,2.214-1.382,3.525,3.525,0,0,1,.741.348Q9.249,13.242,13.18,15.6a7.4,7.4,0,0,1,.826.569,1.624,1.624,0,0,1,.626,1.258" transform="translate(4.725 21.166)" fill="#318202"/>
        <path id="Trazado_609490" data-name="Trazado 609490" d="M27.938,17.4a1.561,1.561,0,0,1,.862-1.449c.962-.581,1.93-1.159,2.892-1.739,1.878-1.125,3.754-2.257,5.632-3.379a1.787,1.787,0,0,1,2.347.1,1.672,1.672,0,0,1-.145,2.523c-.729.52-1.515.959-2.284,1.419Q34.17,16.714,31.1,18.544a6.434,6.434,0,0,1-.847.442A1.685,1.685,0,0,1,27.938,17.4" transform="translate(56.569 21.155)" fill="#318202"/>
        <path id="Trazado_609491" data-name="Trazado 609491" d="M19.244,10.508A1.753,1.753,0,0,1,16.31,11.7a3.056,3.056,0,0,1-.448-.575c-1.694-2.81-3.376-5.629-5.07-8.439A1.659,1.659,0,0,1,10.735.813a1.681,1.681,0,0,1,2.8-.121c.563.9,1.128,1.806,1.679,2.713q1.842,3.045,3.66,6.1a5.729,5.729,0,0,1,.372,1" transform="translate(21.205 0.001)" fill="#318202"/>
        <path id="Trazado_609492" data-name="Trazado 609492" d="M22.621,12.166A1.651,1.651,0,0,1,21.2,9.616c.417-.793.914-1.543,1.376-2.311q1.788-2.967,3.578-5.935A5.3,5.3,0,0,1,26.8.487,1.6,1.6,0,0,1,28.768.245,1.687,1.687,0,0,1,29.551,2.2a5.852,5.852,0,0,1-.46.938c-1.585,2.647-3.182,5.287-4.764,7.934a1.853,1.853,0,0,1-1.706,1.1" transform="translate(42.438 0.022)" fill="#318202"/>
        <path id="Trazado_609493" data-name="Trazado 609493" d="M35.585,32.44a1.838,1.838,0,0,1-.644,1.276q-1.851,1.892-3.724,3.769-1.334,1.348-2.689,2.674a7.126,7.126,0,0,1-.793.687,1.686,1.686,0,0,1-2.254-2.493c1.6-1.627,3.222-3.237,4.837-4.852.744-.744,1.473-1.5,2.232-2.226a1.718,1.718,0,0,1,2.662.218,4.2,4.2,0,0,1,.372.947" transform="translate(50.664 62.255)" fill="#318202"/>
        <path id="Trazado_609494" data-name="Trazado 609494" d="M7.074,30.706a4.766,4.766,0,0,1,1.116.608c2.272,2.229,4.516,4.486,6.764,6.742a5.084,5.084,0,0,1,.52.69,1.494,1.494,0,0,1-.342,2.012,1.537,1.537,0,0,1-2.081.154,3.591,3.591,0,0,1-.42-.351q-3.421-3.4-6.836-6.8A1.689,1.689,0,0,1,5.4,31.792a1.59,1.59,0,0,1,1.609-.971l.064-.115" transform="translate(10.616 62.177)" fill="#318202"/>
        <path id="Trazado_609495" data-name="Trazado 609495" d="M22.027,2.362a1.542,1.542,0,0,1-1.655,1.7A1.746,1.746,0,0,1,20.327.568a1.7,1.7,0,0,1,1.7,1.794" transform="translate(37.717 1.151)" fill="#318202"/>
        <path id="Trazado_609496" data-name="Trazado 609496" d="M34.89.579a1.8,1.8,0,0,1,1.751,1.745,1.837,1.837,0,0,1-1.727,1.739A1.742,1.742,0,0,1,34.89.579" transform="translate(67.157 1.173)" fill="#318202"/>
        <path id="Trazado_609497" data-name="Trazado 609497" d="M6.984,5.188A1.726,1.726,0,0,1,5.248,3.446,1.691,1.691,0,0,1,6.969,1.752,1.8,1.8,0,0,1,8.7,3.531,1.7,1.7,0,0,1,6.984,5.188" transform="translate(10.626 3.548)" fill="#318202"/>
        <path id="Trazado_609498" data-name="Trazado 609498" d="M18.526,4.068a1.671,1.671,0,0,1-1.748,1.649A1.617,1.617,0,0,1,15.15,3.923a1.554,1.554,0,0,1,1.676-1.582,1.632,1.632,0,0,1,1.7,1.727" transform="translate(30.677 4.741)" fill="#318202"/>
      </g>
    </g>
  </g>
</svg>
