<svg xmlns="http://www.w3.org/2000/svg" xmlns:xlink="http://www.w3.org/1999/xlink" width="190" height="188.495" viewBox="0 0 190 188.495">
  <defs>
    <clipPath id="clip-path">
      <rect id="Rectángulo_377631" data-name="Rectángulo 377631" width="188.493" height="188.494" fill="none"/>
    </clipPath>
    <clipPath id="clip-path-2">
      <rect id="Rectángulo_377671" data-name="Rectángulo 377671" width="119.696" height="103.397" fill="none"/>
    </clipPath>
  </defs>
  <g id="Grupo_1072189" data-name="Grupo 1072189" transform="translate(9128 7396)">
    <rect id="Rectángulo_377670" data-name="Rectángulo 377670" width="165" height="165" transform="translate(-9110 -7386)" fill="#fff"/>
    <g id="Grupo_1072157" data-name="Grupo 1072157" transform="translate(-9423.113 -8992.054)">
      <path id="Unión_14" data-name="Unión 14" d="M12787.823,11728.255v0h0v0Zm-7.062,0h0Zm-14.366-14.128v0h0v0Zm18.367-7.062v0h0v0Zm-25.429,7.062h0Zm18.364-7.062h0Z" transform="translate(-12464.221 -9950.771)" fill="none" stroke="#0a5e6b" stroke-width="4"/>
    </g>
    <g id="Grupo_1072156" data-name="Grupo 1072156" transform="translate(-9403.468 -8994)">
      <path id="Trazado_609397" data-name="Trazado 609397" d="M2.4,4.809a2.4,2.4,0,1,1,2.4-2.4,2.4,2.4,0,0,1-2.4,2.4" transform="translate(465.468 1621.191) rotate(90)" fill="#1fd27a"/>
      <path id="Trazado_609398" data-name="Trazado 609398" d="M2.4,4.809a2.4,2.4,0,1,1,2.4-2.4,2.4,2.4,0,0,1-2.4,2.4" transform="translate(465.468 1611.22) rotate(90)" fill="#1fd27a"/>
      <path id="Trazado_609399" data-name="Trazado 609399" d="M2.4,4.809a2.4,2.4,0,1,1,2.4-2.4,2.4,2.4,0,0,1-2.4,2.4" transform="translate(465.468 1601.25) rotate(90)" fill="#1fd27a"/>
      <path id="Trazado_609400" data-name="Trazado 609400" d="M2.4,4.809a2.4,2.4,0,1,1,2.4-2.4,2.4,2.4,0,0,1-2.4,2.4" transform="translate(455.623 1621.191) rotate(90)" fill="#1fd27a"/>
      <path id="Trazado_609401" data-name="Trazado 609401" d="M2.4,4.809a2.4,2.4,0,1,1,2.4-2.4,2.4,2.4,0,0,1-2.4,2.4" transform="translate(455.623 1611.22) rotate(90)" fill="#1fd27a"/>
      <path id="Trazado_609402" data-name="Trazado 609402" d="M2.4,4.809a2.4,2.4,0,1,1,2.4-2.4,2.4,2.4,0,0,1-2.4,2.4" transform="translate(455.623 1601.25) rotate(90)" fill="#1fd27a"/>
      <path id="Trazado_609403" data-name="Trazado 609403" d="M2.4,4.809a2.4,2.4,0,1,1,2.4-2.4,2.4,2.4,0,0,1-2.4,2.4" transform="translate(445.777 1621.191) rotate(90)" fill="#1fd27a"/>
      <path id="Trazado_609404" data-name="Trazado 609404" d="M2.4,4.809a2.4,2.4,0,1,1,2.4-2.4,2.4,2.4,0,0,1-2.4,2.4" transform="translate(445.777 1611.22) rotate(90)" fill="#1fd27a"/>
      <path id="Trazado_609405" data-name="Trazado 609405" d="M2.4,4.809a2.4,2.4,0,1,1,2.4-2.4,2.4,2.4,0,0,1-2.4,2.4" transform="translate(445.777 1601.25) rotate(90)" fill="#1fd27a"/>
    </g>
    <g id="Grupo_1072161" data-name="Grupo 1072161" transform="translate(-9087 -7355)">
      <g id="Grupo_1072161-2" data-name="Grupo 1072161" transform="translate(0 0)" clip-path="url(#clip-path-2)">
        <path id="Trazado_609507" data-name="Trazado 609507" d="M2.388,26.628c1.021,0,2.007.006,2.993,0,3.013-.022,6.028.058,9.034-.1a24.059,24.059,0,0,0,16.669-7.58,24.1,24.1,0,0,0,6.2-11.565A27.877,27.877,0,0,0,37.832.636c-.013-.633-.01-.626.6-.626,3.366,0,6.735.01,10.1-.01.414,0,.527.116.517.514-.029,1.034-.022,2.072-.022,3.106,0,.331-.077.469-.469.466-2.023-.026-4.047.01-6.07-.019-.485-.01-.636.141-.687.6A29.216,29.216,0,0,1,40,12.24,28.732,28.732,0,0,1,28.444,26.217c-.145.093-.279.2-.418.292.01.042.019.084.026.125h.5c12.1-.01,24.194.022,36.289-.042a24.149,24.149,0,0,0,16.351-6.118,24.454,24.454,0,0,0,6.767-9.635,33.968,33.968,0,0,0,1.522-6.048,5.28,5.28,0,0,0,.035-.668,4.124,4.124,0,0,0-.443-.048q-17.709,0-35.415.013c-.488,0-.6-.148-.585-.6.032-.986.022-1.975.006-2.964-.006-.36.064-.511.479-.511q19.6.014,39.2.006c1.044,0,.877-.087.88.838.048,10.852-4.4,19.321-13.46,25.34-.106.071-.215.141-.318.218a1.214,1.214,0,0,0-.128.193h25.52v.581q0,11.658-.019,23.314c0,.43.154.5.54.5q6.677,0,13.357.029c.173,0,.35.019.559.029v3.963c-.321,0-.655,0-.989,0-1.086.006-2.171.039-3.253.016-.392-.01-.495.1-.495.485q0,6.822-.006,13.646c0,1.831.006,3.661.01,5.489,0,.141.019.283.029.495h4.708v3.982h-.832c-4.095.006-8.193.019-12.288.013-.344,0-.482.064-.482.446q.014,9.712.006,19.427a2.753,2.753,0,0,0,.026.276h4.634v4.076c-.2.01-.373.026-.546.026q-50.931,0-101.865,0A8.093,8.093,0,0,1,.027,95.037c-.022-3.9-.055-7.8.01-11.707A7.866,7.866,0,0,1,4.893,75.8a7.755,7.755,0,0,1,3.4-.681c.5.006,1,0,1.526,0a1.209,1.209,0,0,0-.039-.305,8.669,8.669,0,0,1-.819-4.243q0-5.877,0-11.752a7.164,7.164,0,0,1,.707-3.192,5.371,5.371,0,0,0,.2-.591H2.388ZM55.127,46.084c-.01.18-.026.318-.026.459,0,1.314.019,2.624-.006,3.934-.006.411.106.52.514.52q22.363-.014,44.735,0h.758V39.449H84.257c0-1.307-.006-2.563.019-3.822,0-.084.273-.228.418-.228,1.863-.016,3.726-.006,5.585-.01,3.465,0,6.931-.013,10.4,0,.392,0,.485-.119.475-.5-.026-1.262-.006-2.524-.016-3.787a4.71,4.71,0,0,0-.058-.495c-.957,0-1.863,0-2.768,0q-21.37.01-42.741.013c-.4,0-.482.109-.479.495.016,3.318.01,6.635,0,9.953,0,.928-.01.928.909.928,4.76,0,9.523,0,14.282-.016.4,0,.495.122.482.495-.026.713-.01,1.426-.01,2.139v1.471ZM48.476,63.125h45.59v3.963H79.722V75.14h31.038V67.066H98.176V63.713c0-.629,0-.629.642-.629q5.415,0,10.833,0h1.111V55.045h-1.2q-28.587,0-57.174-.016a3.812,3.812,0,0,0-3.947,3.982c.019,1.118.026,2.235.035,3.353,0,.218,0,.44,0,.761M50.9,50.989V30.62H20.614c-.01.206-.029.379-.029.549q0,9.4-.01,18.8c0,1.015,0,1.021,1,1.021H50.9m51.033,40.326H39.692a.652.652,0,0,0-.048.161q0,2.283.019,4.564a1.71,1.71,0,0,0,.055.575A3.82,3.82,0,0,0,42.871,99.3a18.442,18.442,0,0,0,2.666.019q27.874,0,55.755,0h.642ZM79.7,85.822c-1.6-.424-3.1-.813-4.593-1.214-1.731-.462-3.456-.944-5.19-1.4a1.74,1.74,0,0,0-.813.019c-1.6.414-3.183.854-4.773,1.278-1.651.44-3.3.874-5.046,1.336V79.158a2.932,2.932,0,0,0-.312-.035q-7.578,0-15.153-.006a4.372,4.372,0,0,0-2.239.546,3.449,3.449,0,0,0-1.917,3.093c0,.97,0,1.943,0,2.913v1.522h62.255V79.161H79.7ZM35.288,55.048c-.186-.016-.308-.035-.434-.035q-3.936.014-7.869.032c-.485,0-.973.01-1.455.055a3.7,3.7,0,0,0-3,3.276c.051,4.483.019,8.967.013,13.45a2.688,2.688,0,0,0,.533,1.628,3.77,3.77,0,0,0,3.257,1.693c2.672-.01,5.341.01,8.013.016h.97c-.058-.157-.1-.276-.148-.4a7.713,7.713,0,0,1-.771-2.932c-.026-4.355-.071-8.71-.039-13.065a11.66,11.66,0,0,1,.488-2.508,10.551,10.551,0,0,1,.437-1.214M16.474,30.643c-.141-.016-.2-.029-.263-.029q-4.3,0-8.591.01c-1.2.006-1.2.013-1.2,1.224q0,9.37,0,18.737c0,.418.177.424.491.424q4.249-.014,8.495-.01c1.066,0,1.066.019,1.066-1.044q0-9.177.006-18.348v-.963M36.509,79.129c-.585,0-1.118-.006-1.651,0-1.648.019-3.3-.055-4.943.093a3.678,3.678,0,0,0-3.3,3.453c.019.89-.006,1.779-.006,2.669,0,3.465.016,6.928,0,10.393a3.892,3.892,0,0,0,3.921,3.632c1.879-.035,3.754-.016,5.633-.022a3.4,3.4,0,0,0,.392-.048c-.058-.138-.084-.231-.128-.312a8.125,8.125,0,0,1-.919-3.88q-.014-5.848,0-11.7a8.064,8.064,0,0,1,.546-3.038c.161-.4.3-.806.462-1.24m-23.05-.006c-1.949,0-3.812-.067-5.665.035a4.722,4.722,0,0,0-2.068.735A3.777,3.777,0,0,0,4.081,83.42c-.006,2.556,0,5.116.01,7.673,0,1.506-.039,3.013.026,4.519a3.845,3.845,0,0,0,4.011,3.758c1.567-.029,3.138-.029,4.712-.045h.6c-.045-.138-.058-.2-.084-.254a9.34,9.34,0,0,1-.909-4.416c.026-3.645.019-7.287,0-10.929a8.716,8.716,0,0,1,.858-4.137,2.985,2.985,0,0,0,.148-.466M63.4,67.111v13.5c1.654-.446,3.3-.867,4.92-1.336a4.1,4.1,0,0,1,2.377-.01c1.638.485,3.292.9,4.943,1.342v-13.5ZM23.479,99.327c-.08-.215-.122-.35-.18-.479a8.815,8.815,0,0,1-.748-3.771q.053-5.877,0-11.752a8.084,8.084,0,0,1,.668-3.443,7.608,7.608,0,0,0,.254-.764c-1.018,0-1.953-.006-2.891,0a4.791,4.791,0,0,0-.771.08A3.719,3.719,0,0,0,16.6,82.434c-.055.578-.071,1.163-.071,1.744,0,3.754-.032,7.512.016,11.267a3.78,3.78,0,0,0,4.223,3.9c.713-.032,1.426-.013,2.139-.016h.572m22-24.078a11.644,11.644,0,0,1-1.163-5.858c.058-3.205.042-6.411,0-9.616a10.834,10.834,0,0,1,.864-4.243c.061-.151.109-.312.167-.479-1.236,0-2.4-.029-3.565.006A3.84,3.84,0,0,0,38.41,58.9c.09,4.207.051,8.415.051,12.625a3.525,3.525,0,0,0,2.794,3.488c1.346.209,2.733.164,4.22.241M19.336,54.965c-1.236.074-2.377.106-3.51.225a2.737,2.737,0,0,0-1.108.446A3.807,3.807,0,0,0,12.954,59.1c0,1.6.035,3.2.035,4.8,0,2.377-.019,4.756-.026,7.136,0,1.978,1.025,3.575,2.695,3.9a32.591,32.591,0,0,0,3.629.305,1.21,1.21,0,0,0,.035-.218,1.319,1.319,0,0,0-.1-.273,8.309,8.309,0,0,1-.822-4.188q0-5.458,0-10.92a8.485,8.485,0,0,1,.774-4.1,3.015,3.015,0,0,0,.164-.575M48.5,67.118c-.016.141-.035.251-.039.356,0,1.182.084,2.373-.022,3.546a3.909,3.909,0,0,0,4.1,4.156c1.943-.058,3.886-.026,5.829-.035h.906V67.118Z" transform="translate(-0.002 -0.001)" fill="#318202"/>
        <path id="Trazado_609508" data-name="Trazado 609508" d="M12.719,16V11.933h4.1v1.776c0,.649.013,1.294-.013,1.94-.006.119-.177.331-.273.331C15.279,16,14.023,16,12.719,16" transform="translate(28.13 26.391)" fill="#318202"/>
        <path id="Trazado_609509" data-name="Trazado 609509" d="M10.181,11.933h4.066c0,1.069-.006,2.113,0,3.16,0,.9.006.9-.9.9-1.047,0-2.094,0-3.17,0Z" transform="translate(22.517 26.391)" fill="#318202"/>
        <path id="Trazado_609510" data-name="Trazado 609510" d="M7.632,16.015V11.927H9.421c.613,0,1.227.01,1.84,0,.3-.01.44.055.437.4-.016,1.1,0,2.194.006,3.292,0,.234-.035.408-.337.4-1.227-.01-2.454,0-3.735,0" transform="translate(16.879 26.369)" fill="#318202"/>
      </g>
    </g>
  </g>
</svg>
