<svg xmlns="http://www.w3.org/2000/svg" xmlns:xlink="http://www.w3.org/1999/xlink" width="190" height="188.495" viewBox="0 0 190 188.495">
  <defs>
    <clipPath id="clip-path">
      <rect id="Rectángulo_377631" data-name="Rectángulo 377631" width="188.493" height="188.494" fill="none"/>
    </clipPath>
    <clipPath id="clip-path-2">
      <rect id="Rectángulo_377673" data-name="Rectángulo 377673" width="109.502" height="109.155" fill="none"/>
    </clipPath>
  </defs>
  <g id="Grupo_1072190" data-name="Grupo 1072190" transform="translate(9128 6943)">
    <rect id="Rectángulo_377672" data-name="Rectángulo 377672" width="165" height="165" transform="translate(-9110 -6933)" fill="#fff"/>
    <g id="Grupo_1072165" data-name="Grupo 1072165" transform="translate(-9423.113 -8539.054)">
      <path id="Unión_14" data-name="Unión 14" d="M12787.823,11728.255v0h0v0Zm-7.062,0h0Zm-14.366-14.128v0h0v0Zm18.367-7.062v0h0v0Zm-25.429,7.062h0Zm18.364-7.062h0Z" transform="translate(-12464.221 -9950.771)" fill="none" stroke="#0a5e6b" stroke-width="4"/>
    </g>
    <g id="Grupo_1072163" data-name="Grupo 1072163" transform="translate(-9403.468 -8541)">
      <path id="Trazado_609397" data-name="Trazado 609397" d="M2.4,4.809a2.4,2.4,0,1,1,2.4-2.4,2.4,2.4,0,0,1-2.4,2.4" transform="translate(465.468 1621.191) rotate(90)" fill="#1fd27a"/>
      <path id="Trazado_609398" data-name="Trazado 609398" d="M2.4,4.809a2.4,2.4,0,1,1,2.4-2.4,2.4,2.4,0,0,1-2.4,2.4" transform="translate(465.468 1611.22) rotate(90)" fill="#1fd27a"/>
      <path id="Trazado_609399" data-name="Trazado 609399" d="M2.4,4.809a2.4,2.4,0,1,1,2.4-2.4,2.4,2.4,0,0,1-2.4,2.4" transform="translate(465.468 1601.25) rotate(90)" fill="#1fd27a"/>
      <path id="Trazado_609400" data-name="Trazado 609400" d="M2.4,4.809a2.4,2.4,0,1,1,2.4-2.4,2.4,2.4,0,0,1-2.4,2.4" transform="translate(455.623 1621.191) rotate(90)" fill="#1fd27a"/>
      <path id="Trazado_609401" data-name="Trazado 609401" d="M2.4,4.809a2.4,2.4,0,1,1,2.4-2.4,2.4,2.4,0,0,1-2.4,2.4" transform="translate(455.623 1611.22) rotate(90)" fill="#1fd27a"/>
      <path id="Trazado_609402" data-name="Trazado 609402" d="M2.4,4.809a2.4,2.4,0,1,1,2.4-2.4,2.4,2.4,0,0,1-2.4,2.4" transform="translate(455.623 1601.25) rotate(90)" fill="#1fd27a"/>
      <path id="Trazado_609403" data-name="Trazado 609403" d="M2.4,4.809a2.4,2.4,0,1,1,2.4-2.4,2.4,2.4,0,0,1-2.4,2.4" transform="translate(445.777 1621.191) rotate(90)" fill="#1fd27a"/>
      <path id="Trazado_609404" data-name="Trazado 609404" d="M2.4,4.809a2.4,2.4,0,1,1,2.4-2.4,2.4,2.4,0,0,1-2.4,2.4" transform="translate(445.777 1611.22) rotate(90)" fill="#1fd27a"/>
      <path id="Trazado_609405" data-name="Trazado 609405" d="M2.4,4.809a2.4,2.4,0,1,1,2.4-2.4,2.4,2.4,0,0,1-2.4,2.4" transform="translate(445.777 1601.25) rotate(90)" fill="#1fd27a"/>
    </g>
    <g id="Grupo_1072169" data-name="Grupo 1072169" transform="translate(-9083.997 -6903)">
      <g id="Grupo_1072169-2" data-name="Grupo 1072169" transform="translate(0 0.001)" clip-path="url(#clip-path-2)">
        <path id="Trazado_609519" data-name="Trazado 609519" d="M18.834,82.391c-.056-.072-.113-.141-.163-.213a33.3,33.3,0,0,1-5.618-14.97,30.751,30.751,0,0,1,.172-8.545,32.844,32.844,0,0,1,2.516-8.388A32.242,32.242,0,0,1,27.61,36.382a54.36,54.36,0,0,1,4.823-2.635c.388-.2.563-.41.507-.848a8.616,8.616,0,0,1-.031-1.064q0-12.357,0-24.717c0-.739.034-1.48.063-2.219A4.816,4.816,0,0,1,34.2,2.006,5.779,5.779,0,0,1,39.016,0q32.1,0,64.2,0c.163,0,.326,0,.488.006a5.667,5.667,0,0,1,4.8,2.4,6.061,6.061,0,0,1,1,3.665q0,39.094,0,78.188c0,.563-.05,1.124-.078,1.684a5.45,5.45,0,0,1-5.052,4.914c-.592.009-1.183.041-1.778.041q-11.291,0-22.582,0c-5.158,0-10.313,0-15.471-.019a2.473,2.473,0,0,0-1.443.419,30.688,30.688,0,0,1-7.969,3.637,31.745,31.745,0,0,1-15.44.829,33.557,33.557,0,0,1-6.908-2.084,30.988,30.988,0,0,1-6.163-3.493c-1.177,1.2-2.347,2.416-3.552,3.6a.972.972,0,0,0-.338.933,3.433,3.433,0,0,1-1.142,3.117q-1.282,1.268-2.551,2.545c-2.166,2.169-4.326,4.347-6.5,6.513a7.344,7.344,0,0,1-3.07,1.9,6.979,6.979,0,0,1-5.631-.532A7.2,7.2,0,0,1,2.2,96.729c3-2.989,6.013-5.972,8.986-8.989a3.635,3.635,0,0,1,3.509-1.23.559.559,0,0,0,.438-.1c1.293-1.264,2.567-2.541,3.856-3.825-.066-.081-.11-.138-.153-.194M58.205,33.468a31.627,31.627,0,0,1,15.055,12.6A31.73,31.73,0,0,1,78.2,67.487a33.063,33.063,0,0,1-9.84,19.759H69l33.919-.009c.4,0,.8,0,1.2,0a1.831,1.831,0,0,0,1.818-1.809,3.622,3.622,0,0,0,.009-.488V6.175c0-.191,0-.385-.006-.576a2.051,2.051,0,0,0-2.047-2.034c-.131-.006-.266,0-.4,0q-32.338,0-64.679,0a3.242,3.242,0,0,0-.836.088A1.627,1.627,0,0,0,36.59,5.48V32.232a32.175,32.175,0,0,1,21.615,1.236m-11.8,1.08a29.1,29.1,0,1,0-1.233,58.191,29.1,29.1,0,0,0,1.233-58.191M7.642,105.4a3.952,3.952,0,0,0,2.548-1.2q4.352-4.352,8.723-8.689c.263-.263.247-.432-.013-.689q-2.343-2.31-4.654-4.648c-.21-.213-.329-.156-.5.019q-4.38,4.39-8.773,8.764a3.935,3.935,0,0,0-1.286,2.873A3.52,3.52,0,0,0,7.642,105.4M23.686,88.091c-.82-.88-1.643-1.762-2.5-2.676-.247.235-.495.466-.732.7-.8.795-1.59,1.593-2.391,2.385-.169.163-.222.294-.034.479q1.169,1.155,2.332,2.313c.028.028.081.034.053.025,1.161-1.146,2.272-2.244,3.271-3.227" transform="translate(0.001 -0.002)" fill="#318202"/>
        <path id="Trazado_609520" data-name="Trazado 609520" d="M33.692,12.4c.285.228.554.432.811.648a6.28,6.28,0,0,1,1.825,6.93,6.371,6.371,0,0,1-5.74,4.135c-2.178.041-4.357.034-6.535.009a1.807,1.807,0,0,1-1.875-1.934q-.009-8.911,0-17.822a1.832,1.832,0,0,1,1.915-2,37.675,37.675,0,0,1,5.321.1,6.26,6.26,0,0,1,4.476,9.587c-.069.11-.128.225-.2.344m-7.934,8.119c1.459,0,2.864,0,4.269,0a6.859,6.859,0,0,0,.8-.031,2.716,2.716,0,0,0,2.294-3.1,2.891,2.891,0,0,0-3-2.372c-1.23-.013-2.46,0-3.69.006h-.676Zm0-9.149c1.064,0,2.085.047,3.1-.013A2.407,2.407,0,0,0,31.21,9.268a2.574,2.574,0,0,0-2.025-3.224,21.129,21.129,0,0,0-3.424-.038Z" transform="translate(47.225 4.937)" fill="#318202"/>
        <path id="Trazado_609521" data-name="Trazado 609521" d="M20,15.042c-.009.166-.025.322-.028.482-.016,2.266-.016,4.532-.05,6.8a1.754,1.754,0,0,1-3.487.3,5.221,5.221,0,0,1-.088-1.014c-.006-3.909-.019-7.822,0-11.734a7.123,7.123,0,0,1,2.385-5.581,6.887,6.887,0,0,1,7.305-1.5A6.884,6.884,0,0,1,30.665,8a11.6,11.6,0,0,1,.275,2.416q.038,5.709-.009,11.421a3.35,3.35,0,0,1-.319,1.358,1.6,1.6,0,0,1-1.822.87,1.657,1.657,0,0,1-1.424-1.433,5.587,5.587,0,0,1-.053-.886Q27.3,18.7,27.3,15.656c0-.745.022-.648-.638-.642-2.119.013-4.238.006-6.357.009-.088,0-.172.009-.3.019M20,11.4c2.376,0,4.7,0,7.02,0,.254,0,.288-.128.285-.335-.006-.5.016-1,0-1.509a3.5,3.5,0,0,0-2.36-3.38,3.538,3.538,0,0,0-3.737.642C19.741,8.057,19.914,9.712,20,11.4" transform="translate(34.806 4.95)" fill="#318202"/>
        <path id="Trazado_609522" data-name="Trazado 609522" d="M31.126,13.242c0,.682.016,1.365,0,2.044a5.335,5.335,0,0,0,3.731,4.992,7.163,7.163,0,0,0,1.978.225c1.02.031,2.044,0,3.064,0a2.258,2.258,0,0,1,1.49.479,1.716,1.716,0,0,1,.563,1.887,1.452,1.452,0,0,1-1.387,1.186c-2.125.063-4.275.332-6.357-.279a8.837,8.837,0,0,1-6.4-6.516,12.4,12.4,0,0,1-.363-2.8,22.557,22.557,0,0,1,.088-4.038,9.272,9.272,0,0,1,9-8.075q1.887-.056,3.778,0A1.782,1.782,0,0,1,42,3.84,1.757,1.757,0,0,1,40.85,5.856a2.806,2.806,0,0,1-.873.122q-1.864.019-3.734,0a5.339,5.339,0,0,0-5.1,4.817c-.025.814,0,1.631,0,2.444h-.019" transform="translate(58.342 4.941)" fill="#318202"/>
        <path id="Trazado_609523" data-name="Trazado 609523" d="M37.26,10.455H24.681a1.822,1.822,0,0,0-1.853,1.305,1.867,1.867,0,0,0,1.906,2.335c1.941.013,3.881-.022,5.822-.025q9.07-.014,18.138-.016c.429,0,.858.041,1.286.028a1.783,1.783,0,0,0,1.872-1.834,1.81,1.81,0,0,0-1.922-1.79q-6.338-.009-12.67,0" transform="translate(48.448 22.264)" fill="#318202"/>
        <path id="Trazado_609524" data-name="Trazado 609524" d="M35.926,13.361c-2.917,0-5.837-.009-8.754.013a2.753,2.753,0,0,0-1.233.269,1.676,1.676,0,0,0-.8,1.906,1.845,1.845,0,0,0,1.44,1.418,3.1,3.1,0,0,0,.833.1q8.531.009,17.064-.009a3.558,3.558,0,0,0,1.521-.357,1.67,1.67,0,0,0,.823-1.928,1.741,1.741,0,0,0-1.606-1.365c-.4-.034-.8-.044-1.2-.044q-4.042,0-8.088,0Z" transform="translate(53.439 28.452)" fill="#318202"/>
        <path id="Trazado_609525" data-name="Trazado 609525" d="M35.318,19.961c2.191,0,4.382.013,6.573-.009a4.06,4.06,0,0,0,1.471-.228,1.716,1.716,0,0,0,.964-2.028,1.912,1.912,0,0,0-1.809-1.437c-.992-.019-1.984-.006-2.977-.006H28.3a1.933,1.933,0,0,0-2,1.48,1.785,1.785,0,0,0,1.515,2.163,11.071,11.071,0,0,0,1.33.063c2.056.006,4.116,0,6.172,0" transform="translate(55.928 34.604)" fill="#318202"/>
        <path id="Trazado_609526" data-name="Trazado 609526" d="M35.247,28.611c2.413,0,4.829.013,7.243,0a1.788,1.788,0,0,0,1.659-2.692,1.905,1.905,0,0,0-1.84-.936c-1.584-.016-3.171,0-4.754,0-2.948,0-5.894-.009-8.842.009a4.123,4.123,0,0,0-1.383.225,1.728,1.728,0,0,0-1.036,1.991,1.8,1.8,0,0,0,1.756,1.405h7.2" transform="translate(55.92 53.19)" fill="#318202"/>
        <path id="Trazado_609527" data-name="Trazado 609527" d="M34.991,25.749c2.088,0,4.175.013,6.263-.006a1.741,1.741,0,0,0,1.875-1.415,1.839,1.839,0,0,0-1.5-2.2,3.566,3.566,0,0,0-.795-.075q-5.817-.009-11.637.009a3.23,3.23,0,0,0-1.205.225,1.761,1.761,0,0,0-1.127,2.075,1.813,1.813,0,0,0,1.862,1.405c2.088.009,4.175,0,6.263,0Z" transform="translate(57.131 46.957)" fill="#318202"/>
        <path id="Trazado_609528" data-name="Trazado 609528" d="M34.989,22.836c2.044,0,4.088.006,6.128,0a1.86,1.86,0,0,0,2.006-1.618,1.8,1.8,0,0,0-1.6-2.022c-.532-.038-1.067-.019-1.6-.019-3.6,0-7.2-.009-10.792.006a3.125,3.125,0,0,0-1.286.238,1.692,1.692,0,0,0-.942,2.034,1.976,1.976,0,0,0,1.912,1.38c2.059.009,4.116,0,6.175,0" transform="translate(57.158 40.827)" fill="#318202"/>
        <path id="Trazado_609529" data-name="Trazado 609529" d="M32.372,12.212A25.424,25.424,0,1,1,6.428,37.618,25.36,25.36,0,0,1,32.372,12.212M32.09,59.48a21.841,21.841,0,1,0-22-21.775c-.188,11.8,9.7,21.828,22,21.775" transform="translate(13.691 26.002)" fill="#318202"/>
        <path id="Trazado_609530" data-name="Trazado 609530" d="M18.9,34.934c.241-.2.372-.294.485-.407q8.164-8.146,16.325-16.291a2.152,2.152,0,0,1,1.44-.789,1.667,1.667,0,0,1,1.543.8,1.686,1.686,0,0,1,.028,1.89,4.282,4.282,0,0,1-.617.751Q31.25,27.732,24.386,34.567c-1.008,1-2.006,2.016-3.011,3.02-.307.3-.613.607-.933.892-1.1.98-1.856.989-2.892-.034q-3.512-3.465-6.983-6.97a1.772,1.772,0,1,1,2.538-2.457q2.291,2.268,4.567,4.548c.426.429.811.9,1.227,1.368" transform="translate(21.188 37.156)" fill="#318202"/>
        <path id="Trazado_609531" data-name="Trazado 609531" d="M16.763,14.559h-.889a1.844,1.844,0,0,0-1.881,1.734,1.9,1.9,0,0,0,1.728,1.831c1.017.094,2.053.075,3.049.269a14.187,14.187,0,0,1,7.083,3.637,4.159,4.159,0,0,0,.685.56,1.751,1.751,0,0,0,2.285-.332,1.73,1.73,0,0,0-.116-2.379,16.539,16.539,0,0,0-6.388-4.138,39.685,39.685,0,0,0-4.05-1.111,8.553,8.553,0,0,0-1.505-.094v.022" transform="translate(29.803 30.961)" fill="#318202"/>
      </g>
    </g>
  </g>
</svg>
