<svg xmlns="http://www.w3.org/2000/svg" xmlns:xlink="http://www.w3.org/1999/xlink" width="70" height="70" viewBox="0 0 70 70">
  <defs>
    <clipPath id="clip-path">
      <rect id="Rectángulo_377708" data-name="Rectángulo 377708" width="37.613" height="34.824" fill="#fff"/>
    </clipPath>
  </defs>
  <g id="Grupo_1072245" data-name="Grupo 1072245" transform="translate(-600 -2130)">
    <g id="Grupo_1072172" data-name="Grupo 1072172" transform="translate(331.813 1172.813)">
      <circle id="Elipse_5614" data-name="Elipse 5614" cx="35" cy="35" r="35" transform="translate(268.187 957.187)" fill="#0a5e6b"/>
    </g>
    <g id="Grupo_1072238" data-name="Grupo 1072238" transform="translate(616.314 2147.662)">
      <g id="Grupo_1072237" data-name="Grupo 1072237" clip-path="url(#clip-path)">
        <path id="Trazado_609671" data-name="Trazado 609671" d="M27.845,11.368c-1.7,2.144-3.347,4.229-5,6.318-1.775,2.25-3.535,4.511-5.329,6.745a.653.653,0,0,0,0,.984q1.374,1.711,2.69,3.468a.941.941,0,0,0,.858.431c1.586-.024,3.173-.014,4.759-.008a1.4,1.4,0,0,1,1.552,1.347A1.478,1.478,0,0,1,25.9,32.24c-.061,0-.122,0-.183,0-6.589,0-13.179.019-19.768-.008A5.875,5.875,0,0,1,.012,26.2C.011,19.465.04,12.731,0,6A6,6,0,0,1,5.967,0q12.873.1,25.747,0a5.945,5.945,0,0,1,5.9,5.932c-.023,4.028-.012,8.056,0,12.084a1.565,1.565,0,0,1-.918,1.634c-.669.292-1.19.132-1.825-.564q-3.287-3.607-6.562-7.224c-.136-.149-.275-.3-.464-.5m6.739,3.025c.051-.1.084-.128.084-.16,0-2.828.04-5.657-.011-8.484a2.842,2.842,0,0,0-2.95-2.788q-12.907-.006-25.814,0A2.9,2.9,0,0,0,2.945,6.071q0,9.919,0,19.839A3.044,3.044,0,0,0,6.329,29.3q4.882,0,9.764,0h.728L10.3,20.865c-.7.9-1.359,1.775-2.048,2.624a1.464,1.464,0,1,1-2.329-1.772c1.052-1.4,2.115-2.784,3.207-4.149a1.445,1.445,0,0,1,2.359.025c.449.552.873,1.124,1.308,1.686l2.5,3.227c.1-.121.154-.182.2-.246q5.494-6.968,10.988-13.935a1.493,1.493,0,0,1,2.524-.068q1.35,1.494,2.7,2.985c.949,1.045,1.9,2.088,2.869,3.151" transform="translate(0 0)" fill="#fff"/>
        <path id="Trazado_609672" data-name="Trazado 609672" d="M219.68,176.9v.669c0,2.379.007,4.757,0,7.135a1.435,1.435,0,0,1-1.414,1.63,1.457,1.457,0,0,1-1.545-1.633c-.01-2.318,0-4.635,0-6.953v-.952c-.184.145-.307.228-.413.328-.53.5-1.03,1.042-1.589,1.511a1.412,1.412,0,0,1-1.977-.13,1.379,1.379,0,0,1-.049-1.932c1.058-1.1,2.114-2.206,3.273-3.187a3.553,3.553,0,0,1,4.821.269c.956.94,1.88,1.913,2.8,2.889a1.443,1.443,0,0,1-.006,2.076,1.505,1.505,0,0,1-2.088-.024c-.582-.536-1.155-1.083-1.808-1.7" transform="translate(-186.406 -151.507)" fill="#fff"/>
        <path id="Trazado_609673" data-name="Trazado 609673" d="M56.913,47.613a4.38,4.38,0,0,1-4.4,4.4,4.4,4.4,0,1,1,.012-8.794,4.352,4.352,0,0,1,4.392,4.4m-2.944,0a1.422,1.422,0,0,0-1.451-1.462,1.519,1.519,0,0,0-1.473,1.481,1.548,1.548,0,0,0,1.462,1.442,1.446,1.446,0,0,0,1.462-1.461" transform="translate(-42.239 -37.942)" fill="#fff"/>
      </g>
    </g>
  </g>
</svg>
