<svg xmlns="http://www.w3.org/2000/svg" xmlns:xlink="http://www.w3.org/1999/xlink" width="70" height="70" viewBox="0 0 70 70">
  <defs>
    <clipPath id="clip-path">
      <rect id="Rectángulo_377709" data-name="Rectángulo 377709" width="47.626" height="34.422" fill="#fff" stroke="#0a5e6b" stroke-width="1"/>
    </clipPath>
  </defs>
  <g id="Grupo_1072244" data-name="Grupo 1072244" transform="translate(-930 -2130)">
    <g id="Grupo_1072173" data-name="Grupo 1072173" transform="translate(661.813 1172.813)">
      <circle id="Elipse_5614" data-name="Elipse 5614" cx="35" cy="35" r="35" transform="translate(268.187 957.187)" fill="#0a5e6b"/>
    </g>
    <g id="Grupo_1072240" data-name="Grupo 1072240" transform="translate(941.188 2145.695)">
      <g id="Grupo_1072239" data-name="Grupo 1072239" clip-path="url(#clip-path)">
        <path id="Trazado_609674" data-name="Trazado 609674" d="M25.792,29.75c0-.748,0-1.5,0-2.243,0-.142-.056-.178-.182-.178-1.405,0-2.812-.034-4.216.015-1.041.037-2.081.158-3.115.289-.95.12-1.895.286-2.835.463-.789.149-1.58.3-2.35.526-1.179.341-2.356.7-3.5,1.131A27.725,27.725,0,0,0,5.3,31.825a5.365,5.365,0,0,1-1.492.658,3.127,3.127,0,0,1-3.5-1.761A3.2,3.2,0,0,1,.268,28.07a35.662,35.662,0,0,1,1.71-3.8,35.025,35.025,0,0,1,4.8-7,31.013,31.013,0,0,1,6.069-5.309,29.66,29.66,0,0,1,5.394-2.84,27.658,27.658,0,0,1,3.364-1.131c1.02-.265,2.054-.475,3.084-.7.3-.066.609-.1.914-.146.157-.024.222-.1.22-.272-.009-1.148,0-2.3-.008-3.443a3.226,3.226,0,0,1,.637-1.948A3.372,3.372,0,0,1,29.345,0a3.335,3.335,0,0,1,2.3.908q3.248,2.984,6.49,5.976c.654.6,1.312,1.2,1.964,1.808q1.833,1.705,3.66,3.416c.953.888,1.93,1.751,2.854,2.667a3.315,3.315,0,0,1,.841,3.476,3.285,3.285,0,0,1-.931,1.515Q44.113,22,41.7,24.241q-2.853,2.642-5.711,5.278c-1.373,1.27-2.737,2.549-4.12,3.808a3.716,3.716,0,0,1-2.392,1.093,3.53,3.53,0,0,1-3.473-2.338,3.02,3.02,0,0,1-.191-1.075c.011-.419,0-.838,0-1.257h-.029M31.272,7.895l-.057.014c0,.1,0,.2,0,.3,0,1.225.007,2.45.016,3.675,0,.142-.049.193-.187.2-.611.035-1.222.072-1.832.118-.552.042-1.1.088-1.654.147-.377.041-.753.1-1.126.165-.728.129-1.455.259-2.179.408-.409.085-.81.2-1.212.318-.618.174-1.24.338-1.849.54A21.752,21.752,0,0,0,17.647,15.4a25.772,25.772,0,0,0-4.732,3.367,31.464,31.464,0,0,0-4.823,5.649.448.448,0,0,0-.034.1c.059-.014.1-.018.13-.03.487-.167.967-.356,1.461-.5,1.224-.348,2.447-.7,3.684-1,1.031-.246,2.078-.436,3.125-.6.927-.147,1.863-.251,2.8-.329,1.136-.1,2.276-.173,3.415-.206a33.477,33.477,0,0,1,4.828.19c.409.048.823.055,1.23.117.725.11,1.445.253,2.168.373.329.055.331.045.331.385q0,1.7,0,3.4c0,.059.007.118.013.21.074-.066.117-.1.159-.142l1.73-1.6,5.7-5.292q1.12-1.04,2.242-2.077c.239-.222.239-.223,0-.458-.137-.136-.273-.275-.416-.4-1.191-1.085-2.39-2.162-3.573-3.255-1.046-.966-2.073-1.953-3.112-2.927-.616-.577-1.239-1.147-1.859-1.719-.279-.257-.723-.663-1-.919" transform="translate(0 0)" fill="#fff" stroke="#0a5e6b" stroke-linecap="round" stroke-width="1"/>
      </g>
    </g>
  </g>
</svg>
