<svg xmlns="http://www.w3.org/2000/svg" xmlns:xlink="http://www.w3.org/1999/xlink" width="190" height="188.495" viewBox="0 0 190 188.495">
  <defs>
    <clipPath id="clip-path">
      <rect id="Rectángulo_377631" data-name="Rectángulo 377631" width="188.493" height="188.494" fill="none"/>
    </clipPath>
    <clipPath id="clip-path-2">
      <rect id="Rectángulo_377655" data-name="Rectángulo 377655" width="119.599" height="106.527" fill="none"/>
    </clipPath>
  </defs>
  <g id="Grupo_1072183" data-name="Grupo 1072183" transform="translate(9128 10048)">
    <rect id="Rectángulo_377658" data-name="Rectángulo 377658" width="165" height="165" transform="translate(-9110 -10038)" fill="#fff"/>
    <g id="Grupo_1072101" data-name="Grupo 1072101" transform="translate(-9423.113 -11644.054)">
      <path id="Unión_14" data-name="Unión 14" d="M12787.823,11728.255v0h0v0Zm-7.062,0h0Zm-14.366-14.128v0h0v0Zm18.367-7.062v0h0v0Zm-25.429,7.062h0Zm18.364-7.062h0Z" transform="translate(-12464.221 -9950.771)" fill="none" stroke="#0a5e6b" stroke-width="4"/>
    </g>
    <g id="Grupo_1072088" data-name="Grupo 1072088" transform="translate(-9087 -10009)">
      <g id="Grupo_1072087" data-name="Grupo 1072087" transform="translate(0 0)" clip-path="url(#clip-path-2)">
        <path id="Trazado_609234" data-name="Trazado 609234" d="M116.1,20.878H99.121q-32.543,0-65.083,0c-.6,0-1.2-.014-1.8-.007A1.718,1.718,0,0,1,30.4,19.206c-.071-.811.807-1.64,1.778-1.739a8.957,8.957,0,0,1,.924-.032q40.767,0,81.537,0h1.424c.014-.152.039-.276.039-.4,0-2.086.014-4.172,0-6.258a7.4,7.4,0,0,0-5.33-6.924,14.7,14.7,0,0,0-3.4-.425q-47.593-.037-95.18-.018A8.888,8.888,0,0,0,6.548,4.983,7.33,7.33,0,0,0,3.5,11.025c-.018,1.958,0,3.913,0,5.872v.524c.166.011.3.028.443.028q8.983-.005,17.959-.007a4.753,4.753,0,0,1,1.516.227,1.554,1.554,0,0,1,1.02,1.856,1.473,1.473,0,0,1-1.544,1.328c-1.307.039-2.621.025-3.928.025q-7.549,0-15.094-.007H3.527c-.011.195-.025.361-.025.531Q3.5,60.071,3.5,98.739a4.322,4.322,0,0,0,4.115,4.285c1.091.1,2.2.035,3.294.035q12.521.005,25.042,0,25.165,0,50.333,0a8.963,8.963,0,0,1,1.109.074,1.584,1.584,0,0,1,1.388,1.4,1.562,1.562,0,0,1-.882,1.682,4.148,4.148,0,0,1-1.452.294c-2.249.032-4.5.014-6.747.014H8.744a8.485,8.485,0,0,1-6.793-2.833A8.288,8.288,0,0,1,0,98.144c-.007-.5,0-1.006,0-1.505Q0,54.114.01,11.588A11.02,11.02,0,0,1,6.042,1.321,11.6,11.6,0,0,1,11.747.015Q43.855-.007,75.959,0,91.88,0,107.8.015a11.543,11.543,0,0,1,7.356,2.306,10.816,10.816,0,0,1,4.353,8c.06.822.085,1.647.085,2.472q.011,42.6.007,85.2a8.253,8.253,0,0,1-2.55,6.322,8.1,8.1,0,0,1-5.7,2.182c-4.852.05-9.707.028-14.559.021a1.915,1.915,0,0,1-2.086-1.5,1.61,1.61,0,0,1,1.342-1.877,4.885,4.885,0,0,1,.818-.078c4.239,0,8.479.011,12.718,0a17.894,17.894,0,0,0,2.989-.145,4.21,4.21,0,0,0,3.531-4.289q.005-7.4,0-14.8V20.878Z" transform="translate(0 -0.001)" fill="#318202"/>
        <path id="Trazado_609235" data-name="Trazado 609235" d="M98.969,13.507a5.742,5.742,0,0,1-3.549,5.277.759.759,0,0,0-.524.924,8.453,8.453,0,0,1,.042,1.162c0,6.24.021,12.484-.021,18.724-.007.871.064,1.392,1,1.813a5.145,5.145,0,0,1,2.911,3.733,5.483,5.483,0,0,1-2.114,5.808,5.734,5.734,0,0,1-8.942-2.592c-.043-.11-.2-.191-.322-.248a.717.717,0,0,0-.29-.011q-35.959,0-71.926-.011a.668.668,0,0,0-.744.528,5.77,5.77,0,0,1-6,3.517A5.884,5.884,0,0,1,3.46,47.365a5.739,5.739,0,0,1,3.68-6.3.434.434,0,0,0,.344-.489c-.032-1.066-.057-2.136-.057-3.2q-.011-8.027,0-16.057a5.953,5.953,0,0,1,.025-1.307c.17-.754-.17-1.08-.8-1.385A5.521,5.521,0,0,1,3.527,14.7a5.78,5.78,0,0,1,11.046-3.269.6.6,0,0,0,.439.312q20.458.005,40.912-.021,15.215-.005,30.429.021c.861,0,1.371-.074,1.827-1a5.552,5.552,0,0,1,6.028-2.911,5.878,5.878,0,0,1,4.7,4.654,7.426,7.426,0,0,1,.064,1.016M51.189,15.172q-18.1,0-36.2.011a.491.491,0,0,0-.379.244A5.666,5.666,0,0,1,11.545,18.7a1,1,0,0,0-.655,1.1c.021,6.938.007,13.872.021,20.81a.589.589,0,0,0,.315.425,5.586,5.586,0,0,1,3.1,2.862,1.068,1.068,0,0,0,1.211.719Q51.009,44.6,86.485,44.6a5.148,5.148,0,0,1,.776.032c.329.053.485-.06.613-.375a5.547,5.547,0,0,1,3.219-3.17c.322-.124.379-.28.379-.6q-.016-10.407.007-20.81a.812.812,0,0,0-.517-.889,5.844,5.844,0,0,1-3.2-3.393c-.039-.11-.273-.205-.414-.205-1.147-.021-2.295-.018-3.446-.018H51.189M6.92,13.493A2.182,2.182,0,0,0,9.24,15.82a2.5,2.5,0,0,0,2.337-2.341,2.386,2.386,0,0,0-2.352-2.288,2.123,2.123,0,0,0-2.306,2.3m88.56.021a2.159,2.159,0,0,0-2.32-2.32,2.375,2.375,0,0,0-2.369,2.27,2.485,2.485,0,0,0,2.373,2.355,2.2,2.2,0,0,0,2.316-2.306M6.923,46.355a2.247,2.247,0,0,0,2.355,2.359,2.369,2.369,0,0,0,2.288-2.295,2.408,2.408,0,0,0-2.43-2.33,2.149,2.149,0,0,0-2.213,2.267m88.553-.046a2.24,2.24,0,0,0-2.4-2.224,2.459,2.459,0,0,0-2.288,2.387,2.421,2.421,0,0,0,2.5,2.249,2.308,2.308,0,0,0,2.189-2.412" transform="translate(8.614 19.719)" fill="#318202"/>
        <path id="Trazado_609236" data-name="Trazado 609236" d="M37.817,35.632q-6.986,0-13.975,0c-.776,0-1.555.06-2.327.05a3.573,3.573,0,0,1-2.507-1,2.979,2.979,0,0,1-.907-2.228c-.007-2.231-.025-4.462,0-6.694a3.311,3.311,0,0,1,2.8-3.078,9.784,9.784,0,0,1,1.208-.071Q38.125,22.61,54.14,22.6a3.371,3.371,0,0,1,3.386,3.124c.007,2.376.046,4.753-.032,7.129a3.131,3.131,0,0,1-3.322,2.812c-2.947,0-5.89-.021-8.833-.028q-3.761-.005-7.522,0ZM21.593,26.077v5.128c0,1.024,0,1.024,1,1.016h.436q15.241-.005,30.479,0c.489,0,.581-.159.577-.6-.021-1.633-.014-3.265-.007-4.9.007-.637.021-.637-.6-.637q-15.555-.005-31.109-.007h-.776" transform="translate(45.973 57.446)" fill="#318202"/>
        <path id="Trazado_609237" data-name="Trazado 609237" d="M25.135,25.189q9.047,0,18.094,0a2.551,2.551,0,0,1,1.884.439,1.684,1.684,0,0,1,.471,1.9,1.621,1.621,0,0,1-1.456,1.116c-.659.064-1.325.042-1.987.042q-16.713,0-33.425-.007c-.843,0-1.682.011-2.522-.025A1.8,1.8,0,0,1,4.63,27.466,1.66,1.66,0,0,1,5.2,25.592a1.787,1.787,0,0,1,.779-.336,7.27,7.27,0,0,1,1.211-.064q8.973-.005,17.949,0Z" transform="translate(11.537 64.016)" fill="#318202"/>
        <path id="Trazado_609238" data-name="Trazado 609238" d="M25.146,22.745H43.633c.1,0,.195,0,.29,0a1.612,1.612,0,0,1,1.753,1.707,1.7,1.7,0,0,1-1.732,1.75c-.581.025-1.165.018-1.746.018q-17.711-.005-35.423,0a2.321,2.321,0,0,1-1.746-.563,1.682,1.682,0,0,1-.393-1.8,1.463,1.463,0,0,1,1.3-1.087c.177-.018.354-.028.531-.028H25.146" transform="translate(11.531 57.807)" fill="#318202"/>
        <path id="Trazado_609239" data-name="Trazado 609239" d="M36.008,2.679q4.972,0,9.948,0A5.727,5.727,0,0,1,47.11,2.8a1.379,1.379,0,0,1,1.137,1.286,1.532,1.532,0,0,1-.73,1.668A3.811,3.811,0,0,1,46,6.16q-9.95.037-19.9,0A4.211,4.211,0,0,1,24.682,5.9,1.688,1.688,0,0,1,23.64,4.2,1.608,1.608,0,0,1,25,2.774a6.3,6.3,0,0,1,1.155-.092q4.925-.011,9.853,0" transform="translate(60.057 6.805)" fill="#318202"/>
        <path id="Trazado_609240" data-name="Trazado 609240" d="M23.118,20.453V13.565a1.939,1.939,0,0,1,2.075-2.086q2.741-.005,5.482,0a1.92,1.92,0,0,1,1.615.737,1.61,1.61,0,0,1,.181,1.817,1.665,1.665,0,0,1-1.58.935c-1.275.021-2.553.018-3.832,0-.368-.007-.514.078-.5.482q.043,1.45,0,2.908c-.011.393.117.482.5.471,1.133-.032,2.263-.028,3.4-.007a1.687,1.687,0,0,1,1.817,1.555,1.886,1.886,0,0,1-1.735,1.881c-1.13.064-2.263.057-3.4.035-.432-.007-.6.089-.584.556.035.889.021,1.778,0,2.667-.011.372.124.467.478.46,1.2-.025,2.394-.039,3.591-.014A1.891,1.891,0,0,1,32.5,27.079,1.6,1.6,0,0,1,31.129,29.4c-2.132.067-4.268.053-6.4,0-1.08-.028-1.615-.783-1.608-2.012q.005-3.007.014-6.014v-.921Z" transform="translate(58.756 29.167)" fill="#318202"/>
        <path id="Trazado_609241" data-name="Trazado 609241" d="M18.757,14.948c-.761,0-1.459.028-2.15-.007-1.208-.06-1.863-.715-1.835-1.8a1.778,1.778,0,0,1,1.941-1.675c2.121-.018,4.239-.007,6.357,0,.5,0,1.006-.011,1.505.028a1.718,1.718,0,0,1,1.636,1.771,1.623,1.623,0,0,1-1.661,1.661c-.737.039-1.48.007-2.291.007v.616q0,5.966,0,11.932a1.938,1.938,0,0,1-.634,1.657,1.7,1.7,0,0,1-1.905.237,1.614,1.614,0,0,1-.949-1.565c-.014-4.091-.011-8.181-.011-12.275v-.588" transform="translate(37.543 29.126)" fill="#318202"/>
        <path id="Trazado_609242" data-name="Trazado 609242" d="M11.944,14.959c-.478,0-.9,0-1.31,0-.372-.007-.747,0-1.116-.039a1.726,1.726,0,0,1-1.565-1.686,1.813,1.813,0,0,1,1.5-1.714,8.348,8.348,0,0,1,1.112-.05q3.251-.011,6.5-.011a5.673,5.673,0,0,1,.917.057,1.711,1.711,0,0,1,1.438,1.93,1.579,1.579,0,0,1-1.569,1.48c-.645.039-1.293.05-1.937.025-.39-.014-.5.11-.5.5q.011,5.939-.007,11.878c0,.195,0,.39-.011.584a1.7,1.7,0,0,1-1.65,1.64,1.612,1.612,0,0,1-1.725-1.495c-.089-.963-.064-1.937-.067-2.9q-.011-4.877-.014-9.746v-.446" transform="translate(20.213 29.126)" fill="#318202"/>
        <path id="Trazado_609243" data-name="Trazado 609243" d="M22.854,26.078c.974,0,1.927-.014,2.879,0a2.048,2.048,0,0,1,1.884.889,1.631,1.631,0,0,1-.793,2.4.693.693,0,0,1-.23.071c-1.983.007-3.97.078-5.95-.018-.921-.046-1.356-.811-1.36-1.927-.011-2.295,0-4.59,0-6.888.007-2.408,0-4.817.042-7.225a2.246,2.246,0,0,1,.351-1.165A1.481,1.481,0,0,1,21.4,11.54a1.97,1.97,0,0,1,1.42,1.732,2.843,2.843,0,0,1,.018.39q-.021,6.088-.035,12.172a1.244,1.244,0,0,0,.05.244" transform="translate(48.997 29.145)" fill="#318202"/>
        <path id="Trazado_609244" data-name="Trazado 609244" d="M16.053,20.5c0,2.068,0,4.137,0,6.2q0,.558-.043,1.116a1.659,1.659,0,0,1-1.647,1.686,1.778,1.778,0,0,1-1.778-1.643,6.28,6.28,0,0,1-.042-.63l.032-13.72a1.994,1.994,0,0,1,.818-1.721,1.634,1.634,0,0,1,2.575,1.052,6.474,6.474,0,0,1,.074,1.112c.007,2.182,0,4.363,0,6.545Z" transform="translate(31.871 29.169)" fill="#318202"/>
      </g>
    </g>
    <g id="Grupo_1072099" data-name="Grupo 1072099" transform="translate(-9403.468 -11646)">
      <path id="Trazado_609397" data-name="Trazado 609397" d="M2.4,4.809a2.4,2.4,0,1,1,2.4-2.4,2.4,2.4,0,0,1-2.4,2.4" transform="translate(465.468 1621.191) rotate(90)" fill="#1fd27a"/>
      <path id="Trazado_609398" data-name="Trazado 609398" d="M2.4,4.809a2.4,2.4,0,1,1,2.4-2.4,2.4,2.4,0,0,1-2.4,2.4" transform="translate(465.468 1611.22) rotate(90)" fill="#1fd27a"/>
      <path id="Trazado_609399" data-name="Trazado 609399" d="M2.4,4.809a2.4,2.4,0,1,1,2.4-2.4,2.4,2.4,0,0,1-2.4,2.4" transform="translate(465.468 1601.25) rotate(90)" fill="#1fd27a"/>
      <path id="Trazado_609400" data-name="Trazado 609400" d="M2.4,4.809a2.4,2.4,0,1,1,2.4-2.4,2.4,2.4,0,0,1-2.4,2.4" transform="translate(455.623 1621.191) rotate(90)" fill="#1fd27a"/>
      <path id="Trazado_609401" data-name="Trazado 609401" d="M2.4,4.809a2.4,2.4,0,1,1,2.4-2.4,2.4,2.4,0,0,1-2.4,2.4" transform="translate(455.623 1611.22) rotate(90)" fill="#1fd27a"/>
      <path id="Trazado_609402" data-name="Trazado 609402" d="M2.4,4.809a2.4,2.4,0,1,1,2.4-2.4,2.4,2.4,0,0,1-2.4,2.4" transform="translate(455.623 1601.25) rotate(90)" fill="#1fd27a"/>
      <path id="Trazado_609403" data-name="Trazado 609403" d="M2.4,4.809a2.4,2.4,0,1,1,2.4-2.4,2.4,2.4,0,0,1-2.4,2.4" transform="translate(445.777 1621.191) rotate(90)" fill="#1fd27a"/>
      <path id="Trazado_609404" data-name="Trazado 609404" d="M2.4,4.809a2.4,2.4,0,1,1,2.4-2.4,2.4,2.4,0,0,1-2.4,2.4" transform="translate(445.777 1611.22) rotate(90)" fill="#1fd27a"/>
      <path id="Trazado_609405" data-name="Trazado 609405" d="M2.4,4.809a2.4,2.4,0,1,1,2.4-2.4,2.4,2.4,0,0,1-2.4,2.4" transform="translate(445.777 1601.25) rotate(90)" fill="#1fd27a"/>
    </g>
  </g>
</svg>
