<svg xmlns="http://www.w3.org/2000/svg" xmlns:xlink="http://www.w3.org/1999/xlink" width="190" height="188.495" viewBox="0 0 190 188.495">
  <defs>
    <clipPath id="clip-path">
      <rect id="Rectángulo_377631" data-name="Rectángulo 377631" width="188.493" height="188.494" fill="none"/>
    </clipPath>
    <clipPath id="clip-path-2">
      <rect id="Rectángulo_377660" data-name="Rectángulo 377660" width="108.846" height="108.417" fill="none"/>
    </clipPath>
  </defs>
  <g id="Grupo_1072184" data-name="Grupo 1072184" transform="translate(9128 9623)">
    <rect id="Rectángulo_377659" data-name="Rectángulo 377659" width="165" height="165" transform="translate(-9110 -9613)" fill="#fff"/>
    <g id="Grupo_1072108" data-name="Grupo 1072108" transform="translate(-9423.113 -11219.054)">
      <path id="Unión_14" data-name="Unión 14" d="M12787.823,11728.255v0h0v0Zm-7.062,0h0Zm-14.366-14.128v0h0v0Zm18.367-7.062v0h0v0Zm-25.429,7.062h0Zm18.364-7.062h0Z" transform="translate(-12464.221 -9950.771)" fill="none" stroke="#0a5e6b" stroke-width="4"/>
    </g>
    <g id="Grupo_1072107" data-name="Grupo 1072107" transform="translate(-9403.468 -11221)">
      <path id="Trazado_609397" data-name="Trazado 609397" d="M2.4,4.809a2.4,2.4,0,1,1,2.4-2.4,2.4,2.4,0,0,1-2.4,2.4" transform="translate(465.468 1621.191) rotate(90)" fill="#1fd27a"/>
      <path id="Trazado_609398" data-name="Trazado 609398" d="M2.4,4.809a2.4,2.4,0,1,1,2.4-2.4,2.4,2.4,0,0,1-2.4,2.4" transform="translate(465.468 1611.22) rotate(90)" fill="#1fd27a"/>
      <path id="Trazado_609399" data-name="Trazado 609399" d="M2.4,4.809a2.4,2.4,0,1,1,2.4-2.4,2.4,2.4,0,0,1-2.4,2.4" transform="translate(465.468 1601.25) rotate(90)" fill="#1fd27a"/>
      <path id="Trazado_609400" data-name="Trazado 609400" d="M2.4,4.809a2.4,2.4,0,1,1,2.4-2.4,2.4,2.4,0,0,1-2.4,2.4" transform="translate(455.623 1621.191) rotate(90)" fill="#1fd27a"/>
      <path id="Trazado_609401" data-name="Trazado 609401" d="M2.4,4.809a2.4,2.4,0,1,1,2.4-2.4,2.4,2.4,0,0,1-2.4,2.4" transform="translate(455.623 1611.22) rotate(90)" fill="#1fd27a"/>
      <path id="Trazado_609402" data-name="Trazado 609402" d="M2.4,4.809a2.4,2.4,0,1,1,2.4-2.4,2.4,2.4,0,0,1-2.4,2.4" transform="translate(455.623 1601.25) rotate(90)" fill="#1fd27a"/>
      <path id="Trazado_609403" data-name="Trazado 609403" d="M2.4,4.809a2.4,2.4,0,1,1,2.4-2.4,2.4,2.4,0,0,1-2.4,2.4" transform="translate(445.777 1621.191) rotate(90)" fill="#1fd27a"/>
      <path id="Trazado_609404" data-name="Trazado 609404" d="M2.4,4.809a2.4,2.4,0,1,1,2.4-2.4,2.4,2.4,0,0,1-2.4,2.4" transform="translate(445.777 1611.22) rotate(90)" fill="#1fd27a"/>
      <path id="Trazado_609405" data-name="Trazado 609405" d="M2.4,4.809a2.4,2.4,0,1,1,2.4-2.4,2.4,2.4,0,0,1-2.4,2.4" transform="translate(445.777 1601.25) rotate(90)" fill="#1fd27a"/>
    </g>
    <g id="Grupo_1072113" data-name="Grupo 1072113" transform="translate(-9082 -9585)">
      <g id="Grupo_1072112" data-name="Grupo 1072112" transform="translate(0 0)" clip-path="url(#clip-path-2)">
        <path id="Trazado_609416" data-name="Trazado 609416" d="M61.61,27.385a19.081,19.081,0,0,1-.831-2.606,15.621,15.621,0,0,1,.078-6.491A8.7,8.7,0,0,1,65.5,12.359c3.937-1.928,7.85-1.821,11.459.8a8.748,8.748,0,0,1,3.687,7.107,36.641,36.641,0,0,1-.153,4.177,8.139,8.139,0,0,1-1.606,3.911c-.091.13-.182.256-.292.409.341.178.639.325.931.487A9.147,9.147,0,0,1,84,34.648a10.9,10.9,0,0,1,.451,3.171q.044,21.672.019,43.345a2.243,2.243,0,0,1-2.437,2.463q-10.734.019-21.465,0a2.238,2.238,0,0,1-2.4-2.366c-.019-.574,0-1.149,0-1.723q0-18.226.019-36.458c0-.561-.1-.876-.672-1.107-1.048-.419-2.035-.99-3.077-1.425a4.227,4.227,0,0,0-1.567-.331q-19.74-.019-39.48,0a2.309,2.309,0,0,1-2.217-.993,2.094,2.094,0,0,1,1.438-3.167,5.544,5.544,0,0,1,1.185-.094q16.074,0,32.148.006h.591c-.325-.286-.558-.493-.8-.7a33.652,33.652,0,0,1-5.975-7.049c-.406-.61-.847-1.2-1.22-1.834a5.967,5.967,0,0,1,1.993-7.98,5.89,5.89,0,0,1,7.578.889A29.955,29.955,0,0,0,53,23.669a24.639,24.639,0,0,0,8.607,3.716m18.6,30.247c.006-.13.016-.234.016-.334,0-6.621.013-13.238,0-19.858a5,5,0,0,0-5.183-5.124q-3.865.01-7.727.006a21.278,21.278,0,0,1-2.733-.055c-1.146-.153-2.268-.467-3.4-.7a29.5,29.5,0,0,1-8.96-3.466,28.459,28.459,0,0,1-6.857-5.705,1.947,1.947,0,0,0-1.775-.782,1.884,1.884,0,0,0-1.259,3.028c.665.97,1.347,1.928,2.019,2.895a24.119,24.119,0,0,0,9.285,8.01q3.481,1.709,7.01,3.32A2.674,2.674,0,0,1,62.4,41.6c-.049,5.059-.016,10.119-.01,15.178,0,.87,0,.86.883.857q7.9-.01,15.808-.006h1.133M80.2,79.372v-17.5H76.769q-6.956,0-13.906,0c-.36,0-.48.078-.477.458q.01,8.164-.006,16.327v.7h6.883v-.73c-.006-2.749-.049-5.5,0-8.25a2.03,2.03,0,0,1,3.119-1.535,2.605,2.605,0,0,1,1.139,2.311c.006,2.587,0,5.176,0,7.766v.448ZM76.509,21.729l-.075,0c0-.574.032-1.149-.006-1.717a4.921,4.921,0,0,0-3.758-4.43,13.776,13.776,0,0,0-3.106-.185,4.956,4.956,0,0,0-4.686,4.216,19.046,19.046,0,0,0-.081,3.774,4.984,4.984,0,0,0,4.148,4.576,13.675,13.675,0,0,0,2.982.045,4.932,4.932,0,0,0,4.427-4.128c.114-.707.107-1.431.156-2.148" transform="translate(24.372 24.78)" fill="#318202"/>
        <path id="Trazado_609417" data-name="Trazado 609417" d="M11.528,38.654A8.724,8.724,0,0,1,10,35.315a17.533,17.533,0,0,1-.2-4.962,9.386,9.386,0,0,1,3.252-6.494,9.255,9.255,0,0,1,7.049-2.476,9.685,9.685,0,0,1,8.526,5.991,9.515,9.515,0,0,1,.756,3.333,13.229,13.229,0,0,1-.325,4.858,24.4,24.4,0,0,1-1.22,2.814,2.89,2.89,0,0,1-.153.256c.695.13,1.353.247,2.009.37a11.339,11.339,0,0,1,6.974,4.371c.3.386.318.4.623.013a11.826,11.826,0,0,1,6.247-4.225c.72-.191,1.47-.282,2.207-.419.182-.036.363-.065.587-.107-.208-.344-.406-.633-.565-.941a10.624,10.624,0,0,1-1.243-4.946,13.909,13.909,0,0,1,.51-4.446,9.835,9.835,0,0,1,18.469-.873,10.32,10.32,0,0,1,.824,3.9,12.32,12.32,0,0,1-.539,4.654c-.315.818-.74,1.59-1.116,2.382-.039.075-.084.146-.166.289.4.065.75.133,1.1.178a11.694,11.694,0,0,1,8.324,5.085,12.066,12.066,0,0,1,1.889,4.706,9.534,9.534,0,0,1,.071,1.8q.015,4,.013,7.99c0,1.155-.844,1.931-2.213,2.038-.146.013-.292.01-.441.01q-34.285,0-68.574-.013a3.75,3.75,0,0,1-1.568-.338A2.089,2.089,0,0,1,.026,58.087C.007,55.54-.025,53,.033,50.451a11.633,11.633,0,0,1,3.489-8.276A11.2,11.2,0,0,1,9.847,38.93c.535-.081,1.068-.175,1.681-.276M34.9,56.208c0-2.165.084-4.281-.026-6.39a7.085,7.085,0,0,0-2.168-4.7A7.872,7.872,0,0,0,27,42.841c-4.826-.039-9.655-.023-14.481,0a11.811,11.811,0,0,0-2.314.26,7.421,7.421,0,0,0-5.945,7.367v5.744Zm34.774.006c.013-.162.029-.279.026-.393-.006-1.928-.01-3.852-.029-5.78a5.9,5.9,0,0,0-.127-1.357,7.531,7.531,0,0,0-7.523-5.835c-5-.091-10.009-.049-15.013-.006a7.756,7.756,0,0,0-5.8,2.366,6.47,6.47,0,0,0-1.986,4.216c-.088,2.191-.058,4.384-.078,6.575a.975.975,0,0,0,.052.214ZM60.036,31.943a10.743,10.743,0,0,0-.013-1.574,5.658,5.658,0,0,0-10.791-1.415,8.933,8.933,0,0,0-.36,5C49.44,37.5,52.539,39.4,56.246,38.4a5.219,5.219,0,0,0,3.414-3.154,6.952,6.952,0,0,0,.376-3.3m-34.81.2c0-.383.01-.766,0-1.146a5.628,5.628,0,0,0-6.374-5.413,5.566,5.566,0,0,0-4.732,4.151,10.585,10.585,0,0,0,.023,4.774c.889,3.4,3.846,4.7,7.224,3.894a5.064,5.064,0,0,0,3.07-2.437,6.489,6.489,0,0,0,.789-3.823" transform="translate(-0.001 47.944)" fill="#318202"/>
        <path id="Trazado_609418" data-name="Trazado 609418" d="M4.271,4.268V60.74h.448q7.443,0,14.883.01a4.5,4.5,0,0,1,1.295.2,2.059,2.059,0,0,1-.587,4.021c-2.132.029-4.268.019-6.4.019q-5.5,0-11,0c-.191,0-.383,0-.574-.006A2.192,2.192,0,0,1,.01,62.707c-.006-.146,0-.292,0-.441q0-29.792,0-59.584A3.735,3.735,0,0,1,.029,2.11,2.2,2.2,0,0,1,2.288.013C2.476,0,2.668,0,2.859,0Q44.7,0,86.544,0A4.071,4.071,0,0,1,87.2.033,2.241,2.241,0,0,1,89.3,2.515q0,9.955,0,19.907a2.131,2.131,0,0,1-1.72,2.337,1.983,1.983,0,0,1-2.447-1.678c-.088-1.172-.055-2.353-.055-3.528q0-7.219.023-14.432c0-.276,0-.552,0-.854Z" transform="translate(0.013 -0.001)" fill="#318202"/>
        <path id="Trazado_609419" data-name="Trazado 609419" d="M45.3,25.578a6.611,6.611,0,0,1-.308,1.532,2.088,2.088,0,0,1-1.95,1.22,7.677,7.677,0,0,1-1.058,0c-.312-.026-.4.091-.445.383a19.022,19.022,0,0,1-6.205,11.758,19.128,19.128,0,0,1-8.568,4.5,18.28,18.28,0,0,1-7.831.221A19.142,19.142,0,0,1,6.393,37.063,18.22,18.22,0,0,1,3.079,24.806c.659-7.266,4.358-12.517,10.778-15.879a16.319,16.319,0,0,1,5.78-1.775c.623-.068.617-.081.613-.688,0-.308-.006-.62.013-.928a2.041,2.041,0,0,1,2.122-2.077,20.1,20.1,0,0,1,4.553.422,23.3,23.3,0,0,1,7.747,3.174,22.708,22.708,0,0,1,9.051,11.135,27.232,27.232,0,0,1,1.564,7.39M10.326,17.056a14.388,14.388,0,0,0-2.944,6.9,15.237,15.237,0,0,0,1.061,8.285,15.076,15.076,0,0,0,16.564,8.844,14.243,14.243,0,0,0,7.64-3.781A14.98,14.98,0,0,0,37.3,28.749c.055-.315.006-.454-.357-.454-4.712.013-9.421,0-14.13.026a2.86,2.86,0,0,1-2.174-.867c-2.1-2.109-4.212-4.2-6.309-6.3-1.337-1.344-2.655-2.71-4.008-4.1M24.469,7.745c-.01.172-.016.26-.016.344q0,7.833,0,15.665c0,.334.13.38.419.38q7.594-.01,15.188-.006h.886A18.584,18.584,0,0,0,34.809,12.35a18.107,18.107,0,0,0-10.34-4.605m-4.235,3.612c-1.545-.149-5.644,1.522-6.88,2.729,2.278,2.317,4.56,4.634,6.88,6.994Z" transform="translate(6.738 7.761)" fill="#318202"/>
        <path id="Trazado_609420" data-name="Trazado 609420" d="M27.641,11.734H20.134A2.126,2.126,0,0,1,17.911,8.9a2.021,2.021,0,0,1,1.97-1.35c.3-.016.594-.01.886-.01q6.99,0,13.991,0a5.37,5.37,0,0,1,1.051.081,2.073,2.073,0,0,1,1.649,2.152,2.122,2.122,0,0,1-1.873,1.918c-.649.045-1.3.019-1.944.019q-3,0-6,0v.026" transform="translate(39.96 16.922)" fill="#318202"/>
        <path id="Trazado_609421" data-name="Trazado 609421" d="M25.885,9.121H22.971a2.237,2.237,0,0,1-2.009-.977A2.06,2.06,0,0,1,22.2,5.028a3.374,3.374,0,0,1,.743-.091c1.973-.01,3.943-.016,5.916,0a2.071,2.071,0,0,1,2.08,1.347,2.035,2.035,0,0,1-1.7,2.788c-1.113.071-2.236.016-3.352.016v.036" transform="translate(46.323 11.062)" fill="#318202"/>
        <path id="Trazado_609422" data-name="Trazado 609422" d="M26.221,11.065a2.075,2.075,0,0,1,2.064-2.084,2.173,2.173,0,0,1,2.148,2.08,2.184,2.184,0,0,1-2.126,2.058,2.048,2.048,0,0,1-2.087-2.054" transform="translate(58.875 20.165)" fill="#318202"/>
        <path id="Trazado_609423" data-name="Trazado 609423" d="M12.37,20.823a2.038,2.038,0,0,1-2.015,2.071,2.1,2.1,0,0,1-2.126-2.035A2.186,2.186,0,0,1,10.3,18.743a2.082,2.082,0,0,1,2.071,2.08" transform="translate(18.477 42.084)" fill="#318202"/>
      </g>
    </g>
  </g>
</svg>
