<svg xmlns="http://www.w3.org/2000/svg" xmlns:xlink="http://www.w3.org/1999/xlink" width="190" height="188.495" viewBox="0 0 190 188.495">
  <defs>
    <clipPath id="clip-path">
      <rect id="Rectángulo_377631" data-name="Rectángulo 377631" width="188.493" height="188.494" fill="none"/>
    </clipPath>
    <clipPath id="clip-path-2">
      <rect id="Rectángulo_377662" data-name="Rectángulo 377662" width="114.148" height="113.788" fill="none"/>
    </clipPath>
  </defs>
  <g id="Grupo_1072185" data-name="Grupo 1072185" transform="translate(9128 9178)">
    <rect id="Rectángulo_377661" data-name="Rectángulo 377661" width="165" height="165" transform="translate(-9110 -9168)" fill="#fff"/>
    <g id="Grupo_1072117" data-name="Grupo 1072117" transform="translate(-9423.113 -10774.054)">
      <path id="Unión_14" data-name="Unión 14" d="M12787.823,11728.255v0h0v0Zm-7.062,0h0Zm-14.366-14.128v0h0v0Zm18.367-7.062v0h0v0Zm-25.429,7.062h0Zm18.364-7.062h0Z" transform="translate(-12464.221 -9950.771)" fill="none" stroke="#0a5e6b" stroke-width="4"/>
    </g>
    <g id="Grupo_1072114" data-name="Grupo 1072114" transform="translate(-9403.468 -10776)">
      <path id="Trazado_609397" data-name="Trazado 609397" d="M2.4,4.809a2.4,2.4,0,1,1,2.4-2.4,2.4,2.4,0,0,1-2.4,2.4" transform="translate(465.468 1621.191) rotate(90)" fill="#1fd27a"/>
      <path id="Trazado_609398" data-name="Trazado 609398" d="M2.4,4.809a2.4,2.4,0,1,1,2.4-2.4,2.4,2.4,0,0,1-2.4,2.4" transform="translate(465.468 1611.22) rotate(90)" fill="#1fd27a"/>
      <path id="Trazado_609399" data-name="Trazado 609399" d="M2.4,4.809a2.4,2.4,0,1,1,2.4-2.4,2.4,2.4,0,0,1-2.4,2.4" transform="translate(465.468 1601.25) rotate(90)" fill="#1fd27a"/>
      <path id="Trazado_609400" data-name="Trazado 609400" d="M2.4,4.809a2.4,2.4,0,1,1,2.4-2.4,2.4,2.4,0,0,1-2.4,2.4" transform="translate(455.623 1621.191) rotate(90)" fill="#1fd27a"/>
      <path id="Trazado_609401" data-name="Trazado 609401" d="M2.4,4.809a2.4,2.4,0,1,1,2.4-2.4,2.4,2.4,0,0,1-2.4,2.4" transform="translate(455.623 1611.22) rotate(90)" fill="#1fd27a"/>
      <path id="Trazado_609402" data-name="Trazado 609402" d="M2.4,4.809a2.4,2.4,0,1,1,2.4-2.4,2.4,2.4,0,0,1-2.4,2.4" transform="translate(455.623 1601.25) rotate(90)" fill="#1fd27a"/>
      <path id="Trazado_609403" data-name="Trazado 609403" d="M2.4,4.809a2.4,2.4,0,1,1,2.4-2.4,2.4,2.4,0,0,1-2.4,2.4" transform="translate(445.777 1621.191) rotate(90)" fill="#1fd27a"/>
      <path id="Trazado_609404" data-name="Trazado 609404" d="M2.4,4.809a2.4,2.4,0,1,1,2.4-2.4,2.4,2.4,0,0,1-2.4,2.4" transform="translate(445.777 1611.22) rotate(90)" fill="#1fd27a"/>
      <path id="Trazado_609405" data-name="Trazado 609405" d="M2.4,4.809a2.4,2.4,0,1,1,2.4-2.4,2.4,2.4,0,0,1-2.4,2.4" transform="translate(445.777 1601.25) rotate(90)" fill="#1fd27a"/>
    </g>
    <g id="Grupo_1072121" data-name="Grupo 1072121" transform="translate(-9085 -9142)">
      <g id="Grupo_1072121-2" data-name="Grupo 1072121" transform="translate(0 0)" clip-path="url(#clip-path-2)">
        <path id="Trazado_609430" data-name="Trazado 609430" d="M24.516,14.7c2.564,0,5.131.006,7.694-.013a.732.732,0,0,0,.542-.288c1.787-3.049,3.553-6.11,5.325-9.169.742-1.28,1.471-2.57,2.229-3.844.883-1.477,1.966-1.762,3.475-.9,2.88,1.647,5.75,3.312,8.627,4.971q7.78,4.484,15.573,8.953a2.573,2.573,0,0,0,1.236.282q11.058,0,22.118-.031c1.884-.006,3.769.013,5.656-.009a2.182,2.182,0,0,1,1.944.864,2.318,2.318,0,0,1,.426,1.139c.059,1.171.041,2.348.038,3.522q0,5.865-.028,11.726a.84.84,0,0,0,.473.851q5.55,3.165,11.084,6.361c.654.379,1.312.751,1.956,1.146a2.206,2.206,0,0,1,.842,3.321c-.692,1.221-1.412,2.426-2.116,3.641-3.653,6.3-7.265,12.631-10.984,18.891a8.7,8.7,0,0,0-1.265,4.774c.078,8.683.034,17.367.028,26.05A2.1,2.1,0,0,1,97.37,99.1c-.416.034-.836.028-1.252.031q-6.536,0-13.075,0c-.5,0-1.1-.153-1.487.063-.369.21-.526.8-.773,1.23l-6.771,11.7a2.951,2.951,0,0,1-1.625,1.565,2.347,2.347,0,0,1-1.944-.335q-5.376-3.094-10.746-6.2-6.837-3.944-13.686-7.873a1.471,1.471,0,0,0-.7-.185q-13.983.009-27.96.041a2.606,2.606,0,0,1-1.963-.645,1.827,1.827,0,0,1-.635-1.3c-.016-1.884-.034-3.769-.031-5.653q0-4.888.038-9.779a.72.72,0,0,0-.423-.695Q11.433,79.4,8.526,77.718q-3.592-2.066-7.187-4.126a2.253,2.253,0,0,1-.9-3.409q6.738-11.616,13.491-23.22a6,6,0,0,0,.826-3.224c-.053-8.865-.034-17.736-.028-26.6a2.18,2.18,0,0,1,2.42-2.457c2.457-.038,4.915-.009,7.372-.009V14.7m70.375,4.426H19.257V94.665H94.891Zm4.5,40.183a.765.765,0,0,1,.088.044c.106-.157.222-.31.316-.473q4.5-7.743,9.006-15.482c.175-.3.081-.416-.178-.567q-4.235-2.428-8.464-4.871c-.235-.135-.488-.238-.767-.369ZM14.743,54.545c-.047-.022-.1-.044-.147-.063C11.459,59.891,8.323,65.3,5.158,70.756c3.2,1.837,6.358,3.656,9.585,5.512ZM37.669,14.637H59.512c-.207-.153-.307-.241-.419-.307Q51.3,9.837,43.5,5.343c-.26-.15-.379-.138-.538.141-1.13,1.981-2.282,3.95-3.428,5.926-.607,1.052-1.215,2.1-1.866,3.227m17.1,84.5-.056.131,16.262,9.363c1.837-3.168,3.656-6.3,5.506-9.494Z" transform="translate(0 0)" fill="#318202"/>
        <path id="Trazado_609431" data-name="Trazado 609431" d="M12.71,47.652c.119-.188.25-.372.36-.567q4.188-7.236,8.367-14.471a8.08,8.08,0,0,1,6.833-4.367,7.822,7.822,0,0,1,7.353,3.747c1.177,1.828,2.216,3.744,3.309,5.625q3.32,5.7,6.627,11.41c.075.128.144.263.247.451a5.491,5.491,0,0,0,.363-.51c1.662-2.87,3.334-5.738,4.977-8.621a7.679,7.679,0,0,1,3.565-3.443,6.836,6.836,0,0,1,8.414,2.269c.977,1.4,1.769,2.93,2.642,4.4a17.94,17.94,0,0,0,1.208,1.872V12.468H65.07q-7.137,0-14.28.013a2.332,2.332,0,0,1-1.5-.357,2.076,2.076,0,0,1-.892-2.3,2.114,2.114,0,0,1,1.734-1.656,3.459,3.459,0,0,1,.783-.078q9-.009,17.99-.013a2.374,2.374,0,0,1,2,.886,2.312,2.312,0,0,1,.495,1.2c.069,1.621.063,3.246.063,4.868q0,26.4,0,52.8c0,.432,0,.864-.025,1.3a2.2,2.2,0,0,1-1.884,2.094,7.446,7.446,0,0,1-1.152.078q-28.75.009-57.5,0a4.114,4.114,0,0,1-1.139-.15,2.15,2.15,0,0,1-1.634-2.154q-.023-5.165-.019-10.336,0-23.177,0-46.356c0-.632.056-1.268.028-1.9a2.366,2.366,0,0,1,2.438-2.32c2.489,0,4.977.006,7.466.006q5.977,0,11.961,0a2.51,2.51,0,0,1,2.485,1.44,2.175,2.175,0,0,1-1.531,2.924,7.165,7.165,0,0,1-.97.031q-8.466.009-16.925.009c-.376,0-.491.094-.482.5.034,1.327.016,2.658.016,3.988q0,14.575-.013,29.155v1.474l.125.047m4.533.911c-1.477,2.561-2.9,5.055-4.357,7.528a2.377,2.377,0,0,0-.341,1.308q.038,4.545.044,9.084c0,.322.11.391.4.388.9-.013,1.794.006,2.689.006q16.875.014,33.754.025h1.421c-3.381-5.838-6.7-11.566-10.042-17.332-.344.742-.667,1.471-1.017,2.188A5.721,5.721,0,0,1,33.946,54.9a5.88,5.88,0,0,1-3.822-2.15c-.482-.563-.776-.535-1.18.091a4.933,4.933,0,0,1-8.151.235c-1.083-1.327-2.116-2.7-3.174-4.047-.11-.141-.225-.282-.376-.47m49.734,12.07.047,0c0-1.913.006-3.828-.009-5.744a1.558,1.558,0,0,0-.178-.745c-.914-1.612-1.85-3.209-2.78-4.811-1.427-2.454-2.824-4.927-4.292-7.356a2.562,2.562,0,0,0-4.473-.025c-.313.479-.579.983-.867,1.477-1.9,3.274-3.775,6.555-5.7,9.807a1.118,1.118,0,0,0,0,1.324q3.461,5.912,6.871,11.857a.851.851,0,0,0,.842.5c1.114-.022,2.226-.028,3.34-.034,2.254-.006,4.511-.016,6.768-.006.341,0,.448-.094.445-.444-.016-1.931-.009-3.863-.009-5.794M28.781,32.6A3.822,3.822,0,0,0,25.4,34.521c-1.856,3.171-3.684,6.354-5.537,9.525a.7.7,0,0,0,.078.908c1.318,1.656,2.611,3.334,3.916,5a6.465,6.465,0,0,0,.657.717.429.429,0,0,0,.711-.078c.1-.138.182-.288.282-.426a4.882,4.882,0,0,1,7.907-.282c.623.754,1.265.927,1.928.485a2.116,2.116,0,0,0,.707-.883c.629-1.39,1.208-2.8,1.816-4.2a.946.946,0,0,0-.072-.92c-1.913-3.3-3.806-6.6-5.735-9.889A3.749,3.749,0,0,0,28.781,32.6" transform="translate(17.278 17.203)" fill="#318202"/>
        <path id="Trazado_609432" data-name="Trazado 609432" d="M17.756,10.3a2.247,2.247,0,0,1,2.116-2.216A2.533,2.533,0,0,1,22.21,10.3a2.332,2.332,0,0,1-2.257,2.2,2.188,2.188,0,0,1-2.2-2.207" transform="translate(37.825 17.214)" fill="#318202"/>
      </g>
    </g>
  </g>
</svg>
