<svg id="Grupo_1072227" data-name="Grupo 1072227" xmlns="http://www.w3.org/2000/svg" xmlns:xlink="http://www.w3.org/1999/xlink" width="103.238" height="111.515" viewBox="0 0 103.238 111.515">
  <defs>
    <clipPath id="clip-path">
      <rect id="Rectángulo_377706" data-name="Rectángulo 377706" width="103.238" height="111.515" fill="#0a5e6b"/>
    </clipPath>
  </defs>
  <g id="Grupo_1072226" data-name="Grupo 1072226" clip-path="url(#clip-path)">
    <path id="Trazado_609644" data-name="Trazado 609644" d="M92.671,65.182v.667c0,5.442-.067,10.884.032,16.324a6.319,6.319,0,0,1-4.254,5.761,11.507,11.507,0,0,1-2.955.455c-7.888.036-15.776.02-23.664.02h-.679V98.924c.2,0,.406,0,.615,0,1.366.031,2.738,0,4.1.117a1.869,1.869,0,0,1,1.574,1.943,2.146,2.146,0,0,1-1.654,1.99,6.008,6.008,0,0,1-.928.063c-9.568.006-19.136-.014-28.7.033a2.215,2.215,0,0,1-2.349-2.482,2.1,2.1,0,0,1,2.2-1.66c1.331-.015,2.663,0,4.036,0V88.409H39.4c-7.98,0-15.959.013-23.938-.008A6.847,6.847,0,0,1,10,86.094,5.725,5.725,0,0,1,8.52,82.253q.02-14.517.007-29.034V52.5c-.863,0-1.662.008-2.461,0a5.98,5.98,0,0,1-5.22-3.163A6.732,6.732,0,0,1,0,45.654Q.011,32.479.008,19.3c0-.985-.017-1.974.058-2.956a6.364,6.364,0,0,1,5.559-5.734,15.458,15.458,0,0,1,1.747-.09q8.464-.011,16.927-.007h.881c0-1.115-.045-2.188.015-3.255a13.4,13.4,0,0,1,.355-2.421A6.48,6.48,0,0,1,31.9.011C32.612-.006,33.324,0,34.036,0Q57.892,0,81.748,0A6.605,6.605,0,0,1,88.6,6.781c.005,5.3-.023,10.59-.035,15.886,0,.123.021.247.039.44h.6c2.41,0,4.821-.011,7.231,0A6.63,6.63,0,0,1,103,27.631a3.943,3.943,0,0,1,.2,1.067c.038.893.044,1.788.043,2.683-.007,9.313-.054,18.625,0,27.938.012,2.278-2.283,5.521-5.356,5.74-1.454.1-2.917.087-4.375.122-.253.006-.506,0-.832,0M71.717,27.472v.018q-12.788,0-25.577,0a1.785,1.785,0,0,0-1.874,1.842c-.016.839.017,1.679.017,2.519q0,12.927,0,25.854c0,.456,0,.914.032,1.368a2.014,2.014,0,0,0,1.947,1.919c.418.03.839.029,1.259.029q23.99,0,47.98,0c.511,0,1.023,0,1.533-.019a1.913,1.913,0,0,0,1.842-1.234,4.252,4.252,0,0,0,.291-1.534q.018-12.762,0-25.523c0-.967.06-1.935.044-2.9a2.106,2.106,0,0,0-2.356-2.339H71.717M12.558,52.508c0,.31,0,.561,0,.812q.011,8.872.012,17.744c0,.479.226.472.573.472q29.244-.008,58.488-.006c5.458,0,10.916-.015,16.374,0,.483,0,.628-.128.613-.612-.031-1,0-2.008.007-3.012,0-.888,0-1.776,0-2.723h-.8q-20.345,0-40.69,0a7.293,7.293,0,0,1-3.215-.515A6.4,6.4,0,0,1,40.08,58.44c0-1.789,0-3.578,0-5.367,0-.191-.016-.383-.024-.564ZM25.18,14.8c-.153-.01-.24-.021-.329-.021q-9.338,0-18.678,0A2,2,0,0,0,4.15,16.92q-.006,14.653,0,29.305A2.1,2.1,0,0,0,5.926,48.4a11.81,11.81,0,0,0,1.906.058q15.911.032,31.822.058h.38V41.979c-2.892,0-5.738-.027-8.584.01a5.763,5.763,0,0,1-4.218-1.763,7.048,7.048,0,0,1-2.041-5.266C25.161,28.48,25.18,22,25.18,15.516ZM40.065,35.819H36.586c-1.987,0-2.84-.85-2.84-2.82q0-9.039,0-18.078,0-2.109,0-4.218A1.96,1.96,0,0,1,34.8,8.744a3.762,3.762,0,0,1,1.535-.272q9.34-.025,18.68-.007c.675,0,1.351.012,2.025.054a1.913,1.913,0,0,1,1.887,2.047q0,5.944,0,11.888v.62H84.341v-.513q0-8.054,0-16.106a1.965,1.965,0,0,0-2.2-2.19h-50.4a1.9,1.9,0,0,0-2.173,2.18q0,14.654,0,29.308a1.946,1.946,0,0,0,1.86,2.153,6.364,6.364,0,0,0,.872.062q3.669.02,7.339.029c.138,0,.277-.019.427-.03ZM88.639,75.736H12.626c0,2.2-.073,4.368.029,6.53a1.859,1.859,0,0,0,2.109,1.757q35.9,0,71.81.012a1.74,1.74,0,0,0,1.726-1,3,3,0,0,0,.323-1.2c.04-1.331.016-2.664.016-4,0-.69,0-1.38,0-2.106M54.885,23.106V12.621H37.93V31.527h2.15c0-.591,0-1.152,0-1.713a6.354,6.354,0,0,1,5.864-6.6,32.35,32.35,0,0,1,3.389-.107c1.842-.016,3.683,0,5.552,0m2.027,65.337c-.157-.013-.28-.032-.4-.032-3.923,0-7.847.005-11.77-.011-.439,0-.5.167-.5.549.015,3.193.011,6.386.015,9.579a2.673,2.673,0,0,0,.046.354H56.912Z" transform="translate(0 0)" fill="#0a5e6b"/>
    <path id="Trazado_609645" data-name="Trazado 609645" d="M88.4,248.286c-6.117,0-12.233.012-18.35-.019a4.468,4.468,0,0,1-1.821-.44,1.751,1.751,0,0,1-.916-1.9,1.811,1.811,0,0,1,1.439-1.723,5.024,5.024,0,0,1,1.183-.172q18.405-.014,36.81,0a4.242,4.242,0,0,1,.919.11,1.914,1.914,0,0,1,1.66,2,2.058,2.058,0,0,1-1.652,2.042,5.012,5.012,0,0,1-1.086.094q-9.093.008-18.185,0" transform="translate(-37.719 -136.776)" fill="#0a5e6b"/>
    <path id="Trazado_609646" data-name="Trazado 609646" d="M177.055,248.271a21.074,21.074,0,0,1-2.292-.016,1.912,1.912,0,0,1-1.81-1.917c-.022-1.275.453-2.02,1.689-2.121a31.562,31.562,0,0,1,4.846,0,1.86,1.86,0,0,1,1.743,1.976,2.123,2.123,0,0,1-1.775,2.063,7.624,7.624,0,0,1-1.2.085c-.4.013-.8,0-1.2,0v-.069" transform="translate(-96.939 -136.829)" fill="#0a5e6b"/>
    <path id="Trazado_609647" data-name="Trazado 609647" d="M135.588,84.5c-.286,6.991-5.337,12.581-12.627,12.6-7.178.018-12.307-5.245-12.771-12.6.462-7.256,5.588-12.541,12.768-12.54s12.343,5.588,12.63,12.54m-14.9-8.082c-4.063.818-6.6,4.828-6.11,9.687A8.429,8.429,0,0,0,131,86.67h-.594c-2.336,0-4.672.013-7.008,0a2.526,2.526,0,0,1-2.717-2.751q0-2.71,0-5.42V76.418M131.06,82.36a8.577,8.577,0,0,0-5.95-6.008V82.36Z" transform="translate(-61.761 -40.333)" fill="#0a5e6b"/>
    <path id="Trazado_609648" data-name="Trazado 609648" d="M185.988,123.831c-1.917,0-3.834.019-5.75-.014a3.663,3.663,0,0,1-1.37-.3,1.989,1.989,0,0,1-1.2-2.325,2.27,2.27,0,0,1,1.849-1.646,6.225,6.225,0,0,1,.819-.054q5.668,0,11.336,0a3.019,3.019,0,0,1,1.822.455,2.045,2.045,0,0,1-.14,3.463,3.669,3.669,0,0,1-1.562.4c-1.934.047-3.869.018-5.8.018" transform="translate(-99.559 -66.976)" fill="#0a5e6b"/>
    <path id="Trazado_609649" data-name="Trazado 609649" d="M177.517,80.262c0-2.025.018-4.05-.007-6.074a2.169,2.169,0,0,1,1.37-2.209,1.994,1.994,0,0,1,2.648,1.293,4.272,4.272,0,0,1,.114.974c.007,4.031,0,8.063.007,12.094a2.123,2.123,0,0,1-1.136,2.074,2.047,2.047,0,0,1-2.931-1.37,5.609,5.609,0,0,1-.065-.925c-.005-1.952,0-3.9,0-5.856Z" transform="translate(-99.493 -40.26)" fill="#0a5e6b"/>
    <path id="Trazado_609650" data-name="Trazado 609650" d="M196.162,87.949c0,1.258.029,2.517-.015,3.773a3.108,3.108,0,0,1-.338,1.35,1.9,1.9,0,0,1-1.915,1.025,1.982,1.982,0,0,1-1.83-1.493,4.53,4.53,0,0,1-.16-1.13c-.014-2.443-.011-4.886,0-7.328a4.249,4.249,0,0,1,.1-.865,1.95,1.95,0,0,1,2.025-1.7,2.016,2.016,0,0,1,2.021,1.73,17.913,17.913,0,0,1,.1,2.343c.015.765,0,1.531,0,2.3Z" transform="translate(-107.556 -45.725)" fill="#0a5e6b"/>
    <path id="Trazado_609651" data-name="Trazado 609651" d="M206.288,95.173c0-.711-.029-1.423.007-2.132a2.026,2.026,0,0,1,2.011-1.981,1.93,1.93,0,0,1,2.054,1.718,40.186,40.186,0,0,1,0,4.956,2.081,2.081,0,0,1-2.076,1.733,2.167,2.167,0,0,1-1.974-1.944c-.051-.78-.01-1.566-.01-2.35h-.008" transform="translate(-115.617 -51.036)" fill="#0a5e6b"/>
    <path id="Trazado_609652" data-name="Trazado 609652" d="M25.56,56.942c-1.241,0-2.483.029-3.722-.015a4.126,4.126,0,0,1-1.365-.321c-1.022-.413-1.178-1.279-1.108-2.262a1.683,1.683,0,0,1,1.286-1.525,3.844,3.844,0,0,1,1.222-.242q3.723-.033,7.446-.005a2.544,2.544,0,0,1,2.314,1.21,1.845,1.845,0,0,1-.565,2.589,4.037,4.037,0,0,1-1.733.545c-1.254.081-2.517.025-3.776.025" transform="translate(-10.846 -29.459)" fill="#0a5e6b"/>
    <path id="Trazado_609653" data-name="Trazado 609653" d="M25.658,71.75c1.295,0,2.59-.014,3.884.009a2.965,2.965,0,0,1,1.057.207,2.078,2.078,0,0,1,1.346,1.952A2.165,2.165,0,0,1,30.491,75.8a4,4,0,0,1-1.224.226c-2.462.02-4.924.015-7.386,0a3.688,3.688,0,0,1-.916-.124,2.046,2.046,0,0,1-1.591-2.535,2.084,2.084,0,0,1,2.071-1.61c1.4-.022,2.808-.005,4.212-.007" transform="translate(-10.844 -40.213)" fill="#0a5e6b"/>
    <path id="Trazado_609654" data-name="Trazado 609654" d="M25.7,90.985H29.75a2.037,2.037,0,0,1,1.65.7,2,2,0,0,1-1.17,3.355,4.868,4.868,0,0,1-.92.093q-3.664.011-7.328,0a5.361,5.361,0,0,1-.923-.082A1.845,1.845,0,0,1,19.4,92.934a1.818,1.818,0,0,1,1.714-1.858c1.526-.081,3.059-.021,4.588-.021v-.069" transform="translate(-10.874 -50.997)" fill="#0a5e6b"/>
    <path id="Trazado_609655" data-name="Trazado 609655" d="M152.394,19.255c2.006,0,4.012,0,6.018,0a2.278,2.278,0,0,1,1.9.768,1.989,1.989,0,0,1,.367,2.049,1.779,1.779,0,0,1-1.484,1.222,6.379,6.379,0,0,1-.922.087q-5.827.009-11.653,0a5.487,5.487,0,0,1-.871-.061,1.827,1.827,0,0,1-1.706-1.972,2,2,0,0,1,1.9-2.029c2.15-.047,4.3-.014,6.453-.014v-.05" transform="translate(-80.734 -10.792)" fill="#0a5e6b"/>
    <path id="Trazado_609656" data-name="Trazado 609656" d="M152.349,38.61c2.116,0,4.232,0,6.347,0a2,2,0,0,1,1.975,1.272,1.973,1.973,0,0,1-.852,2.427,2.427,2.427,0,0,1-1.189.306q-6.264.027-12.529,0a2.042,2.042,0,0,1-2.005-2.691,1.793,1.793,0,0,1,1.741-1.309q3.255-.006,6.511,0" transform="translate(-80.71 -21.64)" fill="#0a5e6b"/>
    <path id="Trazado_609657" data-name="Trazado 609657" d="M109.8,181.4c-.711,0-1.422.018-2.132,0a2.078,2.078,0,0,1-1.948-1.426,1.754,1.754,0,0,1,.473-2.049,2.109,2.109,0,0,1,1.236-.587c1.635-.051,3.276-.052,4.908.047A2,2,0,0,1,114,179.392a2.047,2.047,0,0,1-1.692,1.938,24.992,24.992,0,0,1-2.509.018v.057" transform="translate(-59.171 -99.378)" fill="#0a5e6b"/>
  </g>
</svg>
